 <svg version="1.0" xmlns="http://www.w3.org/2000/svg"  width="900.000000pt" height="1011.000000pt" viewBox="0 0 900.000000 1011.000000"  preserveAspectRatio="xMidYMid meet">  <g transform="translate(0.000000,1011.000000) scale(0.100000,-0.100000)" fill="#000000" stroke="none"> <path d="M463 10101 c3 -10 -68 -87 -109 -118 -50 -38 -168 -135 -189 -155 -37 -34 -83 -73 -124 -102 -32 -23 -41 -36 -41 -59 l0 -30 38 42 c20 22 40 41 44 41 4 0 26 19 50 43 24 24 72 66 108 93 36 27 102 78 146 114 45 36 103 76 128 88 63 32 61 52 -4 52 -27 0 -49 -4 -47 -9z"/> <path d="M8650 10097 c0 -8 10 -19 23 -25 53 -27 197 -134 260 -193 52 -48 67 -49 67 -4 0 30 -3 35 -22 35 -42 0 -195 118 -218 168 -14 29 -19 32 -62 32 -34 0 -48 -4 -48 -13z"/> <path d="M3780 10005 c0 -8 5 -15 10 -15 6 0 10 7 10 15 0 8 -4 15 -10 15 -5 0 -10 -7 -10 -15z"/> <path d="M4180 9860 c0 -5 7 -10 15 -10 8 0 15 5 15 10 0 6 -7 10 -15 10 -8 0 -15 -4 -15 -10z"/> <path d="M3735 9810 c8 -13 85 -13 105 0 11 7 -4 10 -48 10 -40 0 -61 -4 -57 -10z"/> <path d="M4156 9761 c-13 -21 7 -41 40 -41 34 0 39 6 28 34 -7 17 -59 22 -68 7z"/> <path d="M3500 9740 c0 -15 7 -20 24 -20 35 0 40 15 10 29 -33 15 -34 14 -34 -9z"/> <path d="M4440 9751 c0 -14 33 -31 59 -31 29 0 26 16 -3 24 -13 3 -31 9 -40 12 -9 3 -16 1 -16 -5z"/> <path d="M4723 9739 c-25 -9 -30 -19 -10 -19 15 0 43 17 37 23 -3 3 -15 1 -27 -4z"/> <path d="M5186 9731 c-4 -5 -4 -16 -1 -23 3 -8 1 -27 -4 -41 -6 -16 -7 -27 -1 -27 20 0 57 22 69 42 10 17 10 23 -5 39 -18 20 -49 25 -58 10z"/> <path d="M4910 9684 c0 -9 5 -14 12 -12 18 6 21 28 4 28 -9 0 -16 -7 -16 -16z"/> <path d="M5302 9677 c-36 -38 -24 -57 36 -57 15 0 47 -12 72 -26 26 -15 61 -26 84 -26 31 0 46 -7 73 -36 34 -34 35 -35 101 -30 37 3 94 2 127 -1 48 -5 60 -9 59 -23 -3 -29 71 -72 126 -73 45 -1 54 -5 109 -58 42 -40 67 -57 86 -57 23 0 26 4 23 28 -2 22 -11 29 -45 40 -26 9 -52 26 -68 48 -21 27 -33 34 -61 34 -53 0 -114 35 -114 65 0 14 -3 26 -7 26 -5 1 -39 3 -78 5 -62 3 -72 6 -91 30 -23 28 -23 28 -113 3 -40 -11 -45 -10 -57 6 -20 27 -17 35 16 46 16 6 27 15 24 20 -8 14 -61 10 -67 -5 -3 -8 -20 -14 -42 -14 -29 0 -39 5 -47 24 -12 26 -23 30 -33 14 -12 -20 -45 -10 -51 15 -8 32 -34 32 -62 2z"/> <path d="M4312 9681 c-11 -6 -7 -13 14 -30 37 -29 64 -28 64 4 0 18 -5 25 -19 25 -11 0 -25 2 -33 5 -7 3 -19 1 -26 -4z"/> <path d="M4798 9683 c-36 -9 -17 -23 32 -23 52 0 67 13 28 24 -25 6 -34 6 -60 -1z"/> <path d="M4570 9649 c-22 -9 -23 -11 -8 -20 18 -10 128 -1 128 11 0 19 -79 25 -120 9z"/> <path d="M4980 9646 c0 -14 27 -42 34 -35 2 2 0 14 -5 27 -9 24 -29 30 -29 8z"/> <path d="M4131 9611 c-12 -8 -12 -12 -2 -25 8 -9 19 -16 25 -16 15 0 89 -40 97 -53 11 -16 29 2 29 28 0 19 -7 26 -27 31 -16 4 -39 15 -52 26 -26 20 -48 23 -70 9z"/> <path d="M5068 9589 c34 -23 49 -20 39 6 -4 9 -19 15 -39 15 l-33 0 33 -21z"/> <path d="M5210 9581 c0 -33 6 -37 30 -21 11 7 12 14 4 27 -18 30 -34 27 -34 -6z"/> <path d="M3561 9574 c-13 -30 -9 -39 14 -31 15 7 22 57 7 57 -5 0 -14 -12 -21 -26z"/> <path d="M4414 9554 c-24 -58 -16 -84 40 -116 l48 -29 -7 28 c-14 53 -12 58 25 58 35 0 36 -1 70 -75 13 -28 40 -23 51 9 6 17 15 31 20 31 5 0 20 -18 35 -39 14 -22 36 -42 49 -45 13 -3 27 -15 30 -26 9 -28 49 -36 80 -16 30 20 41 56 25 85 -10 19 -8 22 20 27 22 5 30 12 30 28 -1 34 -24 55 -76 71 -104 32 -128 7 -39 -40 30 -17 55 -33 55 -36 0 -3 -22 -5 -49 -5 -41 1 -54 7 -90 39 -34 30 -46 36 -69 31 -15 -4 -34 -13 -43 -20 -22 -20 -32 -18 -64 16 -30 31 -82 60 -110 60 -9 0 -22 -15 -31 -36z m430 -125 c-7 -11 -44 -12 -44 -1 0 15 11 20 30 15 11 -3 17 -9 14 -14z"/> <path d="M3958 9552 c-42 -5 -37 -37 7 -52 36 -12 55 -7 55 14 0 22 -33 42 -62 38z"/> <path d="M4074 9516 c-8 -22 4 -68 16 -61 13 8 13 62 0 70 -6 3 -13 -1 -16 -9z"/> <path d="M5360 9503 c0 -28 15 -44 33 -37 9 3 17 9 17 13 -1 12 -27 41 -39 41 -6 0 -11 -8 -11 -17z"/> <path d="M4143 9495 c-3 -9 0 -36 7 -60 7 -25 10 -58 7 -74 -6 -28 15 -73 25 -55 32 52 57 110 62 148 7 46 0 56 -23 34 -10 -11 -14 -10 -22 5 -12 21 -48 22 -56 2z"/> <path d="M5034 9488 c-4 -6 4 -21 21 -34 28 -22 28 -22 6 -33 -11 -7 -21 -18 -21 -25 0 -7 -11 -25 -25 -40 -14 -15 -25 -35 -25 -45 0 -20 62 -81 82 -81 6 0 16 -7 23 -17 8 -11 14 -13 19 -4 4 6 0 14 -8 17 -9 3 -16 13 -16 21 0 8 -11 29 -25 47 -32 42 -31 50 5 76 23 16 29 27 24 42 -4 14 1 24 15 34 27 20 26 28 -4 42 -33 15 -62 15 -71 0z"/> <path d="M5281 9491 c-19 -12 -9 -46 14 -46 14 0 19 6 17 20 -5 27 -15 36 -31 26z"/> <path d="M5480 9485 c0 -8 5 -15 12 -15 6 0 19 -7 29 -16 20 -18 39 -11 39 15 0 13 -10 21 -31 25 -45 9 -49 8 -49 -9z"/> <path d="M3678 9484 c-19 -6 -35 -50 -24 -62 4 -3 21 -1 39 6 28 11 34 10 45 -5 6 -9 12 -24 12 -34 0 -20 -25 -43 -39 -35 -5 4 -19 -3 -30 -15 -19 -21 -61 -20 -61 2 0 19 -20 8 -34 -19 -8 -15 -27 -34 -41 -40 -23 -11 -26 -17 -21 -42 4 -23 1 -32 -14 -40 -11 -6 -20 -18 -20 -28 0 -9 -12 -25 -26 -35 -24 -18 -27 -18 -60 -2 -18 9 -34 22 -34 29 0 7 -9 21 -20 31 -18 16 -20 16 -26 2 -3 -9 3 -28 15 -43 12 -15 21 -34 21 -43 1 -21 16 -40 63 -74 34 -26 41 -28 68 -17 32 14 69 66 69 98 0 12 9 23 20 27 11 4 29 23 40 43 28 52 38 63 97 101 74 46 89 41 85 -34 -1 -37 -10 -70 -22 -90 -11 -18 -20 -43 -20 -55 0 -13 -12 -44 -27 -69 -37 -63 -61 -220 -35 -228 6 -3 12 1 12 8 0 7 8 21 18 32 13 14 17 37 17 91 0 67 1 71 21 68 23 -3 33 19 34 68 1 51 29 104 84 160 31 31 56 64 56 73 0 31 -59 59 -110 53 -55 -7 -80 5 -64 31 9 15 22 17 68 15 45 -3 56 -1 56 11 0 34 -154 78 -212 61z"/> <path d="M4326 9454 c-9 -8 -16 -22 -16 -31 0 -12 7 -14 38 -8 50 9 62 22 38 41 -25 18 -41 18 -60 -2z"/> <path d="M3987 9453 c-4 -3 -7 -21 -7 -39 0 -35 22 -50 54 -38 20 8 20 28 0 59 -16 25 -34 31 -47 18z"/> <path d="M5417 9443 c-4 -3 -7 -19 -7 -35 0 -33 27 -39 53 -10 23 25 21 39 -5 46 -29 7 -33 7 -41 -1z"/> <path d="M3489 9414 c-24 -25 -24 -26 -5 -40 28 -20 32 -18 50 18 13 25 14 33 4 40 -19 12 -22 10 -49 -18z"/> <path d="M5300 9396 c0 -14 4 -27 9 -31 12 -7 25 31 16 45 -11 18 -25 10 -25 -14z"/> <path d="M5767 9375 c-24 -50 -22 -58 10 -50 53 13 67 40 37 69 -22 23 -28 20 -47 -19z"/> <path d="M5122 9378 c5 -32 28 -35 28 -4 0 17 -5 26 -16 26 -10 0 -14 -7 -12 -22z"/> <path d="M5621 9355 c-29 -19 -62 -35 -74 -35 -35 0 -67 -11 -67 -23 0 -6 8 -19 17 -30 17 -18 17 -19 0 -32 -16 -11 -25 -65 -11 -65 17 0 60 46 75 80 18 40 25 46 45 32 10 -7 14 -30 15 -84 0 -21 5 -28 19 -28 11 0 20 7 20 15 0 8 4 15 9 15 5 0 21 24 36 54 25 50 26 55 12 83 -28 54 -38 56 -96 18z"/> <path d="M4466 9312 c-8 -65 -4 -84 15 -65 8 8 9 29 2 70 l-9 58 -8 -63z"/> <path d="M4330 9345 c-19 -22 -19 -90 0 -90 17 0 60 61 60 86 0 24 -42 26 -60 4z"/> <path d="M5840 9350 c0 -11 33 -30 52 -30 7 1 3 9 -11 20 -25 22 -41 26 -41 10z"/> <path d="M5348 9339 c-17 -10 -26 -50 -10 -48 4 0 17 13 30 30 24 30 14 39 -20 18z"/> <path d="M5866 9285 c-25 -24 -34 -45 -18 -45 4 0 12 4 18 9 5 5 23 11 39 13 35 4 40 27 8 39 -16 6 -28 2 -47 -16z"/> <path d="M4007 9261 c-4 -21 -13 -30 -29 -33 -20 -3 -24 -10 -30 -68 -8 -81 -22 -119 -54 -145 -26 -21 -46 -95 -25 -95 6 0 11 6 11 13 1 6 14 28 30 47 17 19 30 40 30 47 0 7 8 17 18 22 11 6 27 32 37 58 9 26 23 53 30 58 7 6 20 28 29 49 15 36 15 40 0 58 -24 26 -41 22 -47 -11z"/> <path d="M6210 9285 c0 -3 7 -17 16 -30 10 -15 14 -34 10 -52 -4 -18 -1 -36 8 -48 9 -11 16 -27 16 -35 0 -8 9 -21 20 -28 11 -7 20 -18 20 -26 0 -7 9 -21 19 -30 19 -17 20 -17 31 3 9 18 7 26 -10 48 -14 18 -19 35 -15 52 3 17 -2 37 -15 56 -11 17 -30 45 -41 63 -12 17 -29 32 -40 32 -10 0 -19 -2 -19 -5z"/> <path d="M4934 9235 c-19 -30 -12 -55 15 -55 26 0 34 14 26 50 -8 37 -19 38 -41 5z"/> <path d="M4770 9219 c0 -11 5 -17 10 -14 6 3 10 13 10 21 0 8 -4 14 -10 14 -5 0 -10 -9 -10 -21z"/> <path d="M6023 9230 c-12 -5 -24 -18 -28 -30 -9 -29 8 -46 25 -25 12 14 15 14 31 -1 16 -15 24 -15 66 -4 l47 14 -41 17 c-22 9 -44 22 -47 28 -8 13 -23 13 -53 1z"/> <path d="M3220 9220 c-13 -9 -13 -11 0 -20 19 -13 34 -8 38 13 4 19 -15 22 -38 7z"/> <path d="M3424 9215 c-8 -20 4 -35 28 -35 14 0 18 5 14 16 -3 9 -6 20 -6 25 0 15 -30 10 -36 -6z"/> <path d="M5271 9196 c-6 -7 -9 -45 -7 -87 2 -52 -2 -82 -13 -101 -11 -21 -12 -32 -4 -50 6 -13 14 -31 17 -41 11 -33 31 -12 38 39 13 90 20 112 44 135 30 28 32 59 4 59 -12 0 -24 10 -29 24 -11 28 -36 39 -50 22z"/> <path d="M4166 9175 c-5 -16 -14 -37 -21 -45 -18 -21 -61 -119 -79 -177 -47 -154 -45 -145 -32 -197 16 -64 36 -72 36 -17 0 45 23 111 39 111 21 0 55 171 52 259 -1 14 4 28 10 31 6 4 9 20 7 36 l-4 29 -8 -30z"/> <path d="M4994 9167 c-6 -17 12 -57 26 -57 16 0 12 46 -5 60 -12 10 -16 9 -21 -3z"/> <path d="M3140 9155 c-7 -8 -20 -15 -30 -15 -9 0 -25 -9 -36 -21 -16 -17 -16 -22 -4 -29 8 -6 23 -10 33 -10 23 0 97 59 97 77 0 18 -45 17 -60 -2z"/> <path d="M4450 9150 c-6 -11 -14 -18 -19 -16 -4 3 -13 -24 -20 -59 -11 -54 -18 -67 -43 -82 -50 -30 -115 -219 -103 -295 4 -23 2 -59 -6 -85 -10 -39 -10 -50 3 -77 9 -17 19 -39 22 -50 5 -14 10 -16 19 -8 9 8 14 46 15 122 1 61 7 120 12 130 6 10 10 28 10 40 0 12 9 38 20 58 11 20 36 80 56 132 19 52 45 114 56 138 19 42 19 72 -1 72 -6 0 -15 -9 -21 -20z"/> <path d="M2737 9153 c-8 -7 11 -33 24 -33 5 0 9 9 9 20 0 19 -20 27 -33 13z"/> <path d="M5136 9103 c3 -27 10 -52 15 -57 12 -13 39 13 39 38 0 28 -27 66 -46 66 -12 0 -14 -9 -8 -47z"/> <path d="M4648 9133 c-5 -20 -2 -161 3 -155 18 21 28 90 18 125 -9 35 -17 46 -21 30z"/> <path d="M3230 9090 c-19 -11 -39 -21 -45 -23 -16 -6 13 -35 38 -39 12 -2 27 -15 34 -29 7 -15 24 -34 38 -43 17 -11 25 -26 25 -46 0 -35 36 -62 46 -35 4 9 1 26 -5 38 -7 12 -19 34 -27 49 -8 14 -18 47 -23 72 -8 43 -26 77 -40 75 -3 0 -22 -9 -41 -19z"/> <path d="M5970 9070 c0 -29 4 -40 15 -40 8 0 15 4 15 9 0 5 9 11 20 14 11 3 20 11 20 17 0 7 -8 10 -20 7 -13 -3 -21 1 -25 14 -11 33 -25 21 -25 -21z"/> <path d="M5010 9025 c0 -28 15 -34 24 -9 10 25 7 34 -9 34 -9 0 -15 -9 -15 -25z"/> <path d="M6163 9038 c-16 -20 -36 -106 -30 -123 7 -17 48 -20 64 -4 7 7 8 21 2 42 -5 18 -6 47 -3 64 5 25 3 33 -9 33 -8 0 -19 -6 -24 -12z"/> <path d="M4755 8997 c-10 -26 -15 -50 -12 -54 4 -3 9 3 13 13 3 10 10 29 16 41 6 11 8 27 6 34 -3 8 -13 -8 -23 -34z"/> <path d="M5750 9026 c0 -7 -11 -21 -25 -30 -14 -9 -25 -25 -25 -36 0 -28 -20 -68 -38 -75 -23 -9 -44 16 -39 45 5 24 -25 82 -36 70 -3 -3 -16 -23 -31 -44 -31 -46 -33 -86 -6 -111 20 -18 27 -55 13 -68 -4 -4 -12 6 -19 23 -19 43 -31 37 -38 -17 -3 -27 -8 -67 -12 -90 -3 -24 -2 -43 2 -43 15 0 117 138 129 172 9 29 14 33 41 30 42 -4 66 25 72 88 2 27 11 55 18 61 16 13 19 39 4 39 -5 0 -10 -6 -10 -14z"/> <path d="M5085 9018 c-11 -6 -34 -32 -52 -59 -27 -41 -30 -54 -23 -75 15 -38 39 -26 76 36 46 76 45 120 -1 98z"/> <path d="M6227 9023 c-8 -14 -6 -98 2 -111 5 -8 19 -12 32 -10 21 3 24 9 27 54 3 46 1 51 -23 62 -31 14 -32 14 -38 5z"/> <path d="M3357 9013 c-11 -10 -8 -43 3 -43 6 0 10 11 10 25 0 26 -2 29 -13 18z"/> <path d="M2875 8999 c-4 -6 -5 -13 -1 -16 8 -8 56 6 56 17 0 13 -47 13 -55 -1z"/> <path d="M2976 9001 c-9 -15 23 -36 36 -23 5 5 7 15 4 21 -9 13 -33 14 -40 2z"/> <path d="M3973 8967 c-21 -42 -45 -147 -36 -157 3 -3 13 5 22 17 17 20 49 168 40 178 -3 2 -14 -15 -26 -38z"/> <path d="M4912 8993 c-5 -10 -15 -36 -22 -58 -7 -22 -26 -55 -41 -73 -18 -20 -29 -44 -29 -62 0 -28 -29 -90 -42 -90 -19 0 -38 -36 -38 -71 0 -27 -7 -46 -22 -61 -24 -24 -15 -51 20 -56 24 -4 52 45 52 89 0 43 18 73 56 94 19 10 34 21 34 25 0 4 12 25 27 46 21 30 28 52 29 94 1 31 4 66 8 78 8 25 -1 62 -14 62 -5 0 -13 -8 -18 -17z"/> <path d="M5847 9000 c-22 -65 -25 -78 -14 -89 16 -16 24 -14 47 11 17 18 18 25 8 33 -7 5 -18 21 -25 35 -8 19 -12 21 -16 10z"/> <path d="M6442 8927 l-34 -41 27 -23 c14 -13 38 -23 52 -23 31 0 83 -36 83 -58 1 -35 25 -53 230 -173 30 -18 63 -41 73 -51 24 -25 42 -23 55 7 14 30 48 33 57 5 4 -11 11 -18 16 -15 15 10 10 33 -8 37 -12 2 -17 14 -17 43 -1 33 -5 41 -22 43 -15 2 -25 -6 -35 -27 l-15 -29 -39 27 c-65 43 -109 68 -148 80 -40 14 -97 72 -97 100 0 11 -23 36 -55 60 -30 23 -59 50 -65 61 -15 27 -20 25 -58 -23z"/> <path d="M4482 8921 c-9 -17 -22 -31 -27 -31 -12 0 -45 -67 -37 -75 3 -3 15 -5 28 -5 15 0 24 8 28 25 4 14 15 34 26 45 21 21 26 55 10 65 -6 3 -18 -7 -28 -24z"/> <path d="M5402 8869 c-17 -36 -32 -77 -32 -90 0 -13 -9 -42 -21 -63 -20 -38 -20 -86 1 -86 17 0 11 -21 -16 -53 -15 -18 -34 -32 -42 -32 -8 0 -20 -15 -27 -34 -6 -19 -17 -37 -23 -39 -7 -2 -12 -9 -12 -15 0 -7 -9 -23 -20 -37 -29 -37 -26 -52 12 -48 28 3 33 8 41 40 9 38 56 88 83 88 8 0 14 -10 14 -24 0 -32 19 -44 35 -23 7 10 21 17 33 17 14 0 25 12 36 41 15 38 15 43 1 65 -18 28 -30 30 -44 7 -8 -15 -12 -16 -23 -5 -10 10 -10 16 0 30 7 9 15 24 18 32 3 8 13 32 22 53 14 35 14 42 -2 88 -15 41 -16 55 -6 78 6 16 10 40 8 53 -2 18 -10 10 -36 -43z"/> <path d="M3765 8910 c-3 -6 -1 -26 6 -45 10 -28 10 -39 0 -59 -11 -20 -18 -23 -41 -16 -35 10 -40 6 -40 -38 0 -25 5 -35 20 -39 15 -4 18 -11 13 -34 -4 -20 -1 -30 10 -35 8 -3 18 -17 22 -32 10 -41 33 -72 55 -72 29 0 33 17 13 48 -11 15 -24 40 -31 55 -9 20 -17 27 -28 23 -9 -3 -14 -3 -12 1 17 36 29 66 43 117 15 48 15 65 6 97 -12 39 -24 48 -36 29z"/> <path d="M5217 8883 c-11 -11 -8 -58 5 -71 22 -22 38 -13 38 21 0 41 -24 70 -43 50z"/> <path d="M3370 8825 c0 -40 37 -105 60 -105 25 0 25 12 0 35 -16 14 -19 26 -14 56 6 37 5 39 -20 39 -21 0 -26 -5 -26 -25z"/> <path d="M5831 8830 c-24 -11 -50 -20 -57 -20 -8 0 -22 -16 -31 -35 -10 -20 -28 -38 -44 -44 -27 -9 -54 -32 -74 -63 -5 -8 -32 -43 -60 -77 -27 -35 -51 -67 -53 -72 -6 -16 17 -9 63 19 42 26 85 86 85 119 0 7 9 17 21 24 20 10 21 9 14 -20 -6 -28 -4 -31 19 -31 30 0 81 42 102 82 8 16 29 35 47 43 77 37 106 63 92 85 -10 16 -77 11 -124 -10z"/> <path d="M4605 8783 c-21 -56 -32 -183 -16 -183 5 0 13 17 16 38 3 20 12 60 20 88 29 98 12 144 -20 57z"/> <path d="M3586 8763 c3 -32 10 -69 14 -83 5 -14 14 -43 20 -65 15 -57 90 -135 90 -93 0 6 -9 21 -19 32 -28 31 -69 143 -77 209 -5 38 -11 57 -20 57 -11 0 -13 -13 -8 -57z"/> <path d="M2811 8801 c-15 -10 -8 -15 29 -24 29 -7 56 6 46 22 -8 13 -55 14 -75 2z"/> <path d="M2976 8801 c-11 -16 5 -39 34 -51 16 -7 32 -12 35 -11 12 3 73 -34 117 -70 49 -41 83 -48 118 -27 22 14 25 12 34 -19 6 -20 4 -23 -18 -23 -28 0 -33 -17 -16 -51 15 -27 27 -24 35 11 4 17 10 30 15 30 4 0 17 -23 29 -51 36 -83 67 -43 38 49 -9 26 -18 60 -22 76 -5 26 -9 28 -40 23 -19 -3 -37 -1 -41 4 -3 6 -17 8 -29 5 -13 -3 -27 -1 -31 5 -4 6 -40 27 -81 46 -41 19 -77 41 -80 49 -4 11 -8 12 -20 3 -10 -9 -17 -9 -25 -1 -14 14 -45 16 -52 3z"/> <path d="M6150 8802 c0 -13 51 -46 107 -70 29 -13 74 -34 99 -47 56 -30 75 -32 47 -6 -12 11 -23 24 -24 29 -2 5 -35 30 -72 56 -56 38 -76 46 -113 46 -24 0 -44 -4 -44 -8z"/> <path d="M5113 8776 c-23 -29 -31 -66 -14 -66 15 0 42 50 39 73 -3 21 -4 20 -25 -7z"/> <path d="M5957 8759 c-8 -31 1 -42 27 -34 11 4 39 10 61 13 26 5 40 12 40 22 0 11 -15 16 -61 18 -56 3 -62 1 -67 -19z"/> <path d="M5203 8758 c-17 -22 -22 -47 -12 -54 14 -8 25 5 33 39 7 28 -5 36 -21 15z"/> <path d="M2735 8709 c-57 -30 -92 -66 -78 -80 8 -8 23 -4 54 12 29 15 64 23 104 24 91 3 88 2 63 35 -18 25 -29 30 -63 30 -22 0 -58 -9 -80 -21z"/> <path d="M4446 8713 c-3 -3 -6 -20 -6 -37 0 -17 -6 -43 -14 -58 -13 -25 -20 -63 -17 -98 1 -11 7 -8 21 10 14 18 20 41 20 83 0 32 5 67 10 77 10 18 -1 36 -14 23z"/> <path d="M4987 8703 c-10 -10 -27 -30 -38 -45 -11 -16 -29 -28 -39 -28 -10 0 -28 -15 -39 -34 -25 -40 -26 -46 -6 -46 8 0 15 7 15 15 0 8 5 15 10 15 6 0 10 -6 10 -14 0 -8 -4 -18 -10 -21 -5 -3 -10 -19 -10 -36 0 -22 -5 -29 -18 -29 -23 0 -52 -30 -52 -53 0 -9 3 -17 6 -17 12 0 64 42 64 51 0 5 18 27 40 49 22 22 42 52 45 67 3 16 17 49 30 74 35 66 31 92 -8 52z"/> <path d="M2931 8696 c-20 -23 12 -66 48 -66 18 0 12 46 -7 63 -22 21 -26 21 -41 3z"/> <path d="M4680 8683 c0 -22 2 -25 10 -13 13 20 13 40 0 40 -5 0 -10 -12 -10 -27z"/> <path d="M3460 8657 c0 -8 7 -21 16 -28 14 -11 15 -10 12 11 -3 26 -28 41 -28 17z"/> <path d="M4117 8663 c-3 -5 -2 -27 3 -49 5 -21 12 -52 15 -69 5 -24 8 -27 16 -13 16 29 -17 159 -34 131z"/> <path d="M5947 8620 c-14 -16 -27 -33 -29 -37 -9 -22 -84 -67 -109 -65 -27 2 -63 -25 -167 -125 -38 -37 -48 -41 -85 -40 -36 2 -42 -1 -43 -18 -1 -45 -15 -75 -34 -75 -13 0 -20 -7 -20 -20 0 -11 -4 -20 -10 -20 -14 0 -32 -39 -26 -56 9 -24 37 -3 57 42 13 31 24 44 39 44 16 0 20 6 20 31 0 28 2 31 24 25 16 -4 28 -1 33 8 4 8 23 16 42 18 19 2 37 10 41 18 22 48 29 55 58 58 19 2 36 12 46 28 10 14 26 24 39 24 16 0 35 16 62 53 22 28 44 54 48 56 5 1 28 21 53 42 l45 39 -30 0 c-20 0 -37 -9 -54 -30z"/> <path d="M5184 8624 c-8 -20 -41 -70 -61 -92 -7 -7 -13 -20 -13 -27 0 -8 -9 -19 -20 -25 -17 -9 -20 -8 -20 9 0 11 -4 22 -9 26 -11 6 -81 -51 -81 -66 0 -5 16 -9 35 -9 19 0 35 -5 35 -11 0 -6 -16 -25 -35 -42 -39 -34 -42 -42 -19 -51 19 -7 107 73 131 118 8 16 26 39 39 51 29 27 53 110 36 127 -9 9 -13 7 -18 -8z"/> <path d="M6093 8581 c-34 -26 -73 -61 -87 -78 -14 -17 -37 -34 -51 -37 -16 -4 -27 -15 -30 -34 -3 -15 -13 -41 -22 -59 -27 -54 -2 -80 45 -47 30 21 72 11 72 -16 0 -21 34 -29 45 -10 6 10 84 49 138 69 17 7 27 18 27 31 0 21 24 28 35 10 6 -10 75 -15 75 -6 0 3 -5 17 -10 31 -8 20 -15 25 -28 20 -9 -4 -42 -9 -71 -12 -42 -3 -60 -10 -78 -29 -12 -13 -29 -24 -36 -24 -8 0 -18 -7 -21 -16 -3 -9 -15 -14 -28 -12 -19 2 -23 9 -21 36 1 42 41 101 72 109 14 3 39 16 57 28 24 17 30 25 21 34 -8 8 -6 14 8 24 10 8 15 19 11 25 -15 25 -62 10 -123 -37z m-103 -175 c0 -20 -19 -31 -32 -18 -6 6 -7 15 -4 21 10 16 36 13 36 -3z"/> <path d="M4663 8613 c-7 -3 -13 -20 -13 -39 l0 -35 25 18 c13 10 25 21 25 24 0 13 -26 36 -37 32z"/> <path d="M2514 8596 c-8 -22 3 -33 18 -18 9 9 9 15 0 24 -9 9 -13 7 -18 -6z"/> <path d="M6226 8584 c-3 -9 -6 -17 -6 -19 0 -2 32 -16 71 -31 57 -23 77 -37 107 -75 38 -49 119 -95 209 -119 23 -6 45 -15 48 -20 11 -18 27 -11 20 9 -4 14 1 20 25 24 40 9 38 29 -5 50 -40 19 -75 22 -75 7 0 -5 -8 -10 -18 -10 -20 0 -45 24 -55 53 -4 10 -21 24 -39 32 -18 7 -52 27 -75 44 -44 32 -142 71 -179 71 -12 0 -25 -7 -28 -16z"/> <path d="M3999 8573 c-9 -10 -24 -23 -34 -29 -25 -14 -10 -34 26 -34 32 0 57 35 46 64 -8 21 -19 20 -38 -1z"/> <path d="M5077 8563 c-4 -3 -7 -13 -7 -21 0 -12 3 -12 15 -2 8 7 15 16 15 21 0 11 -14 12 -23 2z"/> <path d="M2983 8504 c-7 -3 -13 -14 -13 -23 0 -18 38 -29 160 -47 l35 -5 -26 18 c-15 10 -37 26 -50 35 -26 18 -86 30 -106 22z"/> <path d="M4657 8503 c-10 -9 -9 -43 1 -43 12 0 32 23 32 37 0 14 -22 18 -33 6z"/> <path d="M7013 8503 c-19 -7 -16 -20 14 -58 28 -35 43 -37 43 -5 0 24 -41 70 -57 63z"/> <path d="M2543 8465 c-3 -9 -3 -19 1 -22 7 -7 36 16 36 28 0 15 -30 10 -37 -6z"/> <path d="M4342 8398 c4 -46 28 -49 28 -4 0 26 -4 36 -16 36 -11 0 -14 -8 -12 -32z"/> <path d="M4537 8413 c-13 -12 -7 -33 8 -33 8 0 15 9 15 20 0 20 -11 26 -23 13z"/> <path d="M7107 8401 c-6 -23 3 -71 13 -71 4 0 10 -18 14 -41 4 -25 11 -39 19 -36 18 6 20 52 3 70 -10 9 -15 30 -13 53 1 28 -2 39 -14 42 -10 2 -19 -5 -22 -17z"/> <path d="M2467 8396 c-7 -16 1 -26 20 -26 7 0 13 9 13 20 0 23 -25 27 -33 6z"/> <path d="M5350 8386 c0 -9 7 -16 16 -16 9 0 14 5 12 12 -6 18 -28 21 -28 4z"/> <path d="M6950 8389 c0 -18 51 -78 71 -84 11 -4 19 -15 19 -29 0 -30 26 -54 42 -38 11 11 -31 98 -68 139 -22 23 -64 32 -64 12z"/> <path d="M3389 8351 c-14 -19 -32 -31 -46 -31 -28 0 -40 -24 -23 -45 16 -20 6 -32 -34 -39 -19 -4 -46 -16 -60 -27 -21 -17 -38 -20 -83 -17 -44 2 -58 -1 -66 -14 -9 -13 -7 -22 8 -38 18 -20 18 -21 -11 -51 -15 -16 -39 -32 -52 -36 -16 -4 -21 -10 -17 -23 4 -12 -13 -32 -57 -71 -99 -85 -108 -96 -108 -127 0 -23 -11 -38 -47 -68 -25 -22 -51 -42 -57 -46 -7 -5 -6 -13 6 -24 12 -12 25 -15 50 -10 33 7 48 22 157 159 21 27 55 61 76 75 20 15 46 44 56 65 11 21 31 42 45 47 14 6 42 26 62 45 97 92 160 137 238 165 16 6 38 24 48 40 9 17 26 35 37 40 28 16 23 38 -11 44 -16 3 -43 9 -59 12 -25 4 -33 0 -52 -25z"/> <path d="M5752 8358 c-14 -14 -16 -44 -2 -53 5 -3 19 4 30 15 17 17 19 24 9 36 -14 17 -21 18 -37 2z"/> <path d="M7170 8355 c0 -9 7 -30 16 -47 19 -37 37 -25 32 23 -2 26 -8 35 -25 37 -16 2 -23 -2 -23 -13z"/> <path d="M5113 8353 c-23 -9 -15 -35 10 -31 12 2 22 9 22 17 0 16 -14 22 -32 14z"/> <path d="M6760 8314 c0 -22 46 -64 71 -64 26 0 24 9 -11 48 -32 34 -60 42 -60 16z"/> <path d="M5956 8274 c-8 -22 1 -34 27 -34 31 0 51 15 44 34 -8 21 -63 21 -71 0z"/> <path d="M4970 8250 c0 -5 9 -10 19 -10 11 0 23 5 26 10 4 6 -5 10 -19 10 -14 0 -26 -4 -26 -10z"/> <path d="M5605 8251 c-39 -8 -45 -38 -11 -50 42 -17 114 16 116 52 0 8 -62 7 -105 -2z"/> <path d="M5842 8218 c2 -12 10 -23 18 -23 22 0 19 39 -3 43 -15 3 -18 -1 -15 -20z"/> <path d="M6147 8212 c-33 -20 -31 -43 5 -56 21 -7 31 -5 53 12 33 26 63 28 80 5 8 -10 19 -14 30 -9 16 6 15 9 -10 36 -25 26 -36 30 -79 29 -28 0 -63 -8 -79 -17z"/> <path d="M6701 8183 c17 -23 52 -52 62 -53 15 0 6 24 -19 46 -31 29 -64 34 -43 7z"/> <path d="M7186 8152 c-3 -6 -14 -8 -25 -5 -21 5 -33 -23 -24 -57 6 -23 33 -27 33 -5 0 8 10 23 22 35 16 14 19 23 11 31 -7 7 -13 7 -17 1z"/> <path d="M2880 8136 c-6 -8 -27 -20 -47 -27 -22 -7 -31 -15 -25 -21 11 -11 162 39 162 53 0 15 -77 10 -90 -5z"/> <path d="M6797 8144 c-4 -4 -7 -22 -7 -40 0 -24 5 -34 20 -39 11 -3 20 -13 20 -21 0 -22 16 -17 35 12 16 25 14 39 -6 39 -5 0 -19 13 -32 28 -12 16 -26 25 -30 21z"/> <path d="M7050 8118 c0 -16 5 -28 10 -28 13 0 13 20 0 40 -8 12 -10 9 -10 -12z"/> <path d="M6042 8118 c-18 -18 -15 -26 16 -42 15 -8 44 -30 64 -50 40 -39 71 -48 66 -18 -3 18 -111 122 -126 122 -4 0 -13 -5 -20 -12z"/> <path d="M5821 8085 c-22 -38 -15 -50 21 -36 32 12 52 37 44 56 -10 27 -43 17 -65 -20z"/> <path d="M7267 8104 c-4 -4 -7 -17 -7 -29 0 -13 -6 -28 -14 -34 -8 -7 -17 -42 -21 -81 -4 -39 -11 -73 -16 -76 -21 -13 -9 -66 22 -95 33 -31 49 -35 80 -19 27 15 24 40 -11 91 -26 38 -30 53 -30 112 0 37 5 75 11 86 12 18 0 58 -14 45z"/> <path d="M6443 8063 c-7 -2 -13 -14 -13 -26 0 -11 -8 -29 -17 -39 -12 -14 -14 -21 -5 -30 9 -9 16 -7 32 7 11 10 20 24 20 32 0 8 12 13 35 13 25 0 35 4 35 15 0 24 -55 41 -87 28z"/> <path d="M6302 8003 c2 -22 9 -29 31 -31 34 -4 37 20 5 42 -32 23 -40 20 -36 -11z"/> <path d="M6850 7985 c-12 -15 -11 -19 15 -64 8 -14 11 -37 8 -53 -3 -16 3 -49 15 -80 25 -66 33 -111 36 -213 2 -86 23 -215 36 -229 12 -13 33 102 27 149 -4 23 -15 63 -27 89 -16 38 -18 52 -9 69 15 28 4 162 -16 190 -8 12 -15 31 -15 43 0 12 -7 27 -15 34 -8 7 -15 21 -15 30 0 24 -10 50 -20 50 -4 0 -13 -7 -20 -15z"/> <path d="M6218 7983 c-31 -8 -20 -34 45 -107 35 -39 78 -96 97 -126 19 -30 42 -63 50 -72 8 -9 26 -39 40 -65 13 -26 40 -66 61 -89 20 -22 39 -56 43 -76 3 -19 18 -64 31 -98 14 -35 25 -78 25 -94 0 -33 28 -142 54 -215 9 -24 16 -56 16 -71 0 -30 25 -96 45 -120 15 -18 28 -121 25 -207 -1 -58 0 -63 20 -63 11 0 23 -7 26 -15 4 -8 10 -15 15 -15 14 0 11 45 -6 76 -19 37 -19 83 0 90 8 3 17 15 21 26 4 15 11 18 31 13 27 -6 27 -10 7 55 -5 14 -2 20 9 20 21 0 27 12 41 72 9 43 17 53 51 72 41 23 59 56 31 56 -8 0 -18 -4 -21 -10 -14 -23 -25 -7 -25 39 0 45 3 53 35 77 37 28 61 89 50 124 -10 32 -22 23 -29 -21 -6 -36 -9 -39 -22 -28 -19 15 -34 -2 -34 -39 0 -13 -7 -37 -16 -54 -15 -29 -15 -66 1 -114 5 -16 2 -23 -14 -27 -15 -4 -21 -13 -21 -33 0 -15 -8 -36 -17 -46 -9 -10 -26 -42 -37 -71 -12 -28 -26 -52 -31 -51 -21 2 -47 66 -50 122 -5 91 6 135 35 142 30 7 34 38 7 54 -14 9 -21 7 -31 -6 -7 -10 -18 -18 -24 -18 -21 0 -42 32 -42 63 -1 18 -7 43 -15 57 -8 14 -14 36 -15 51 0 14 -6 31 -12 38 -11 10 -9 15 7 27 26 19 39 13 45 -22 4 -22 7 -25 12 -12 4 10 -1 27 -13 41 -10 14 -19 30 -19 36 0 6 -9 15 -19 20 -10 6 -29 30 -41 53 -11 24 -26 51 -33 60 -18 26 0 34 26 11 12 -11 42 -31 67 -43 25 -13 49 -29 53 -36 4 -8 14 -14 21 -14 7 0 18 -11 24 -25 15 -32 32 -32 32 -1 0 17 -10 30 -34 44 -19 12 -46 39 -61 61 -21 34 -31 41 -56 41 -23 0 -32 5 -36 20 -3 11 -16 23 -29 26 -13 3 -26 15 -29 26 -4 10 -18 23 -31 28 -18 7 -24 17 -24 38 0 39 8 44 38 24 26 -17 116 -40 159 -41 46 -2 38 80 -9 94 -16 6 -26 1 -39 -16 l-18 -24 -23 21 c-35 33 -66 39 -89 18 -25 -22 -55 -8 -52 24 2 13 -5 23 -18 27 -13 4 -19 14 -17 27 2 15 -5 23 -32 32 -28 9 -35 16 -36 39 -1 36 -9 42 -36 31 -34 -15 -51 -7 -73 34 -20 37 -34 44 -67 35z"/> <path d="M6980 7962 c0 -5 7 -13 16 -16 10 -4 14 -1 12 6 -5 15 -28 23 -28 10z"/> <path d="M2420 7934 c-6 -14 -10 -32 -10 -40 0 -7 -16 -24 -35 -36 -36 -24 -42 -33 -25 -43 6 -3 10 -15 10 -26 0 -24 27 -36 43 -19 9 10 9 14 0 17 -22 8 -14 23 11 23 32 0 40 14 41 70 0 25 4 53 9 63 6 13 4 17 -13 17 -14 0 -25 -9 -31 -26z"/> <path d="M8152 7891 c2 -14 9 -26 16 -29 17 -5 15 10 -3 34 -15 18 -15 18 -13 -5z"/> <path d="M6551 7871 c-18 -12 -5 -31 22 -31 29 0 51 15 43 29 -8 13 -45 14 -65 2z"/> <path d="M7375 7869 c-5 -6 -1 -15 7 -20 9 -5 18 -19 22 -32 5 -22 10 -24 58 -21 29 1 61 3 71 3 23 1 22 24 -4 47 -21 19 -21 18 -39 -4 -24 -30 -46 -28 -62 5 -14 30 -42 41 -53 22z"/> <path d="M8805 7870 c-22 -5 -47 -7 -57 -4 -9 3 -19 0 -23 -6 -4 -6 -27 -8 -60 -4 -38 5 -59 3 -70 -6 -8 -7 -13 -15 -11 -19 6 -9 343 -7 353 2 13 13 -36 47 -66 46 -14 -1 -44 -5 -66 -9z"/> <path d="M7658 7854 c-10 -3 -18 -14 -18 -24 0 -15 9 -17 70 -16 64 1 105 16 82 30 -14 8 -114 16 -134 10z"/> <path d="M8220 7848 c0 -8 5 -19 12 -26 20 -20 40 -14 36 11 -3 25 -48 39 -48 15z"/> <path d="M7881 7841 c-15 -10 -8 -15 29 -24 14 -3 32 -2 40 3 13 9 13 11 0 20 -18 12 -50 13 -69 1z"/> <path d="M8320 7841 c-22 -6 -23 -8 -7 -14 26 -10 139 -9 155 2 28 17 -93 27 -148 12z"/> <path d="M2282 7734 c-26 -27 -33 -42 -30 -67 4 -42 29 -46 71 -11 46 39 51 59 21 89 -14 14 -26 25 -27 24 -1 0 -17 -16 -35 -35z"/> <path d="M1844 7725 c-10 -26 14 -43 78 -54 53 -9 67 -8 97 7 51 25 49 39 -9 51 -76 16 -159 14 -166 -4z"/> <path d="M553 7719 c-18 -3 -40 -12 -48 -19 -8 -7 -23 -9 -32 -5 -10 4 -75 9 -145 11 -128 3 -128 3 -128 -20 0 -22 4 -23 103 -29 57 -3 122 -1 145 4 27 6 58 6 85 -1 72 -16 206 -7 308 22 26 7 42 7 57 -1 47 -25 222 -9 222 20 0 6 -4 7 -10 4 -5 -3 -29 1 -52 8 -32 11 -97 15 -258 14 -118 0 -230 -4 -247 -8z"/> <path d="M1295 7723 c-91 -3 -125 -9 -125 -22 0 -16 33 -22 155 -28 97 -4 127 -2 159 11 32 13 37 18 26 31 -13 15 -16 15 -215 8z"/> <path d="M1574 7708 c-8 -13 22 -38 47 -38 10 0 30 5 44 10 23 9 25 13 15 25 -15 18 -95 20 -106 3z"/> <path d="M0 7674 c0 -22 3 -24 23 -18 29 9 29 8 21 28 -3 9 -15 16 -25 16 -14 0 -19 -7 -19 -26z"/> <path d="M2722 7623 c-51 -18 -61 -36 -36 -64 15 -17 16 -23 6 -40 -13 -21 -8 -59 8 -59 5 0 12 10 15 23 12 40 30 77 37 77 15 0 38 47 32 64 -7 19 -6 19 -62 -1z"/> <path d="M2310 7520 c0 -25 -4 -30 -24 -30 -36 0 -63 -29 -79 -86 -14 -52 -12 -114 4 -114 16 0 10 -44 -11 -83 -11 -20 -20 -49 -20 -63 0 -15 -5 -44 -11 -65 -11 -36 -10 -40 19 -74 33 -37 33 -52 -2 -107 -28 -45 -29 -66 -4 -82 13 -8 35 -18 50 -21 36 -9 54 21 67 110 5 39 13 81 17 95 7 23 6 24 -9 11 -14 -11 -20 -11 -33 -1 -35 30 -37 49 -8 108 19 38 28 75 30 116 2 44 7 64 20 73 21 15 47 84 35 96 -4 4 -14 1 -21 -8 -15 -18 -50 -20 -50 -2 0 10 12 39 52 120 9 19 3 37 -13 37 -5 0 -9 -13 -9 -30z m-40 -200 c0 -23 -18 -36 -32 -22 -7 7 -6 17 2 31 13 24 30 19 30 -9z"/> <path d="M7114 7529 c-15 -16 -19 -39 -21 -112 -1 -51 -5 -116 -9 -145 -8 -74 7 -87 46 -42 27 31 30 40 26 83 -4 35 -1 56 11 73 14 23 14 26 -2 44 -14 16 -17 30 -12 70 7 56 -6 66 -39 29z"/> <path d="M8109 7499 c-15 -28 17 -73 54 -77 25 -3 27 0 27 32 0 59 -56 90 -81 45z"/> <path d="M2601 7375 c-27 -30 -41 -54 -41 -72 0 -39 -22 -78 -45 -79 -11 -1 -26 -2 -33 -3 -9 -1 -12 -12 -10 -33 2 -27 -2 -35 -29 -53 -32 -20 -44 -45 -21 -45 6 0 20 -7 30 -16 23 -22 50 -2 42 30 -5 22 2 28 66 53 34 14 75 95 61 122 -9 15 -5 26 19 56 31 39 40 85 16 85 -7 0 -32 -20 -55 -45z"/> <path d="M7043 7095 c-7 -20 2 -29 21 -22 9 4 13 13 10 22 -8 19 -23 19 -31 0z"/> <path d="M2478 6989 c-10 -5 -18 -19 -18 -30 0 -17 6 -20 33 -17 27 2 33 8 35 31 4 29 -16 36 -50 16z"/> <path d="M6462 6943 c4 -36 33 -39 33 -3 0 16 -6 26 -18 28 -15 3 -18 -2 -15 -25z"/> <path d="M2395 6853 c-30 -46 -33 -79 -5 -86 31 -8 57 23 65 76 6 43 4 47 -14 47 -12 0 -30 -15 -46 -37z"/> <path d="M7101 6867 c-9 -12 -10 -21 -1 -36 22 -42 40 -14 21 32 -6 17 -8 17 -20 4z"/> <path d="M6960 6805 c0 -9 6 -12 15 -9 8 4 15 10 15 15 0 5 -7 9 -15 9 -8 0 -15 -7 -15 -15z"/> <path d="M2220 6762 c-35 -17 -35 -17 -34 -82 2 -77 8 -137 18 -167 5 -16 0 -31 -15 -53 -22 -30 -23 -31 -6 -60 14 -24 16 -34 7 -51 -7 -12 -9 -36 -6 -54 4 -20 1 -46 -8 -67 -27 -64 -50 -184 -58 -303 -4 -66 -10 -163 -14 -216 -6 -94 -5 -97 21 -125 23 -25 26 -34 20 -72 -9 -57 9 -102 40 -102 25 0 38 20 25 40 -4 7 -4 26 0 41 5 16 4 58 -1 95 -5 36 -7 69 -4 74 3 5 -3 22 -12 38 -17 29 -17 32 0 67 9 19 17 47 17 61 0 13 6 40 14 58 11 26 12 44 3 80 -9 38 -7 55 8 100 18 52 18 56 2 74 -20 21 -13 52 10 52 9 0 21 -7 28 -16 10 -14 15 -15 35 -4 l24 13 -22 15 c-16 10 -22 24 -22 51 0 25 -6 40 -20 49 -26 16 -25 26 6 68 l27 35 -19 34 c-18 34 -18 35 4 58 25 27 29 62 7 71 -18 6 -9 67 12 79 27 16 14 37 -22 37 -24 0 -35 5 -35 15 0 8 4 15 9 15 15 0 21 44 8 57 -10 10 -20 9 -47 -5z"/> <path d="M6927 6763 c-4 -3 -7 -21 -7 -38 0 -18 -7 -38 -15 -45 -19 -16 -19 -106 0 -140 19 -33 19 -79 0 -86 -23 -9 -18 -50 9 -77 30 -30 36 -26 36 29 0 42 13 64 25 44 9 -15 25 -12 25 4 0 7 -7 27 -15 42 -8 16 -15 41 -15 56 0 22 7 31 36 43 45 19 44 50 -1 50 -29 0 -30 2 -27 40 2 32 -2 45 -21 63 -13 12 -27 19 -30 15z"/> <path d="M7110 6596 c0 -37 5 -58 16 -67 13 -10 17 -10 25 2 10 17 11 31 3 82 -5 27 -11 37 -25 37 -16 0 -19 -8 -19 -54z"/> <path d="M2364 6486 c-4 -11 -1 -39 9 -67 9 -25 17 -63 17 -83 0 -39 13 -47 30 -17 14 27 13 37 -7 57 -11 11 -16 29 -15 53 2 20 -4 45 -12 56 -14 20 -15 20 -22 1z"/> <path d="M6840 6470 c0 -11 7 -20 15 -20 17 0 18 2 9 24 -9 23 -24 20 -24 -4z"/> <path d="M6794 6353 c3 -21 6 -57 6 -80 0 -40 16 -59 24 -30 2 6 11 36 20 66 18 61 11 81 -32 81 -23 0 -24 -2 -18 -37z"/> <path d="M7025 6354 c-20 -21 -15 -38 13 -42 16 -2 25 4 31 20 15 39 -12 53 -44 22z"/> <path d="M6971 6198 c-5 -13 -18 -30 -29 -39 -17 -15 -19 -26 -15 -85 2 -38 8 -78 13 -89 5 -11 13 -33 18 -50 5 -19 16 -31 30 -33 12 -2 22 1 22 7 0 6 8 18 19 28 12 12 20 39 25 83 6 59 4 66 -16 82 -18 13 -22 27 -23 65 0 37 -4 48 -17 51 -11 2 -21 -5 -27 -20z m64 -128 c4 -12 -2 -31 -17 -50 l-23 -31 -17 21 c-21 26 -23 51 -6 68 19 19 56 14 63 -8z"/> <path d="M6824 6034 c-4 -20 -2 -46 5 -61 6 -13 9 -29 5 -34 -3 -5 -3 -23 1 -39 5 -21 13 -30 27 -30 16 0 19 5 14 28 -7 33 -26 154 -26 165 0 4 -4 7 -10 7 -5 0 -12 -16 -16 -36z"/> <path d="M3531 6043 c-19 -8 -44 -12 -55 -9 -11 3 -28 -2 -38 -10 -13 -13 -26 -14 -60 -8 -49 10 -89 7 -102 -6 -13 -13 58 -42 79 -34 9 4 39 -4 66 -16 43 -21 53 -22 89 -11 30 9 56 9 107 0 117 -19 257 -51 291 -66 34 -15 62 -12 62 7 0 13 -66 54 -115 71 -22 7 -46 18 -54 23 -20 16 -83 36 -111 36 -14 0 -45 9 -69 20 -50 23 -46 23 -90 3z"/> <path d="M2420 5926 c0 -14 -4 -28 -10 -31 -5 -3 -10 -21 -10 -40 0 -20 -10 -50 -25 -71 -20 -30 -25 -49 -25 -100 0 -58 -2 -64 -20 -64 -24 0 -41 -36 -44 -93 -1 -20 -7 -42 -14 -49 -7 -7 -12 -25 -12 -42 0 -19 -10 -40 -26 -57 -30 -31 -32 -51 -38 -318 -4 -169 2 -221 24 -221 19 0 32 53 51 210 10 85 32 205 48 265 17 61 31 126 31 147 0 20 11 60 25 90 14 29 25 70 25 90 0 20 5 40 10 43 6 3 10 52 10 110 0 58 4 107 10 110 6 3 10 15 10 26 0 10 -4 19 -10 19 -5 0 -10 -11 -10 -24z"/> <path d="M6750 5842 c0 -11 7 -25 15 -32 24 -20 29 -50 10 -64 -26 -19 -23 -208 4 -300 32 -106 40 -104 47 10 3 44 0 107 -7 142 -12 61 -12 63 13 90 29 30 37 59 24 81 -5 8 -12 28 -16 45 -5 26 -11 31 -36 31 -16 0 -35 4 -41 8 -9 6 -13 2 -13 -11z"/> <path d="M5522 5838 c-31 -31 2 -58 70 -58 24 0 52 -6 63 -13 37 -25 84 -37 110 -27 31 12 55 3 55 -20 0 -37 180 -37 200 0 13 23 4 30 -41 30 -20 0 -50 7 -65 15 -16 8 -49 15 -74 15 -27 0 -58 8 -77 19 -58 36 -219 61 -241 39z"/> <path d="M5303 5790 c-2 -31 2 -40 15 -41 9 -1 31 -3 47 -5 84 -10 98 -9 109 8 18 29 -6 41 -78 39 -60 -2 -66 0 -66 19 0 39 -26 21 -27 -20z"/> <path d="M6147 5804 c-13 -13 -7 -42 9 -48 8 -3 25 -1 37 6 12 7 28 11 35 10 6 -2 12 1 12 6 0 5 -12 12 -27 15 -16 3 -35 8 -44 12 -8 3 -18 2 -22 -1z"/> <path d="M6982 5791 c2 -7 7 -12 11 -12 12 1 9 15 -3 20 -7 2 -11 -2 -8 -8z"/> <path d="M6292 5738 c3 -7 13 -15 24 -16 10 -2 35 -20 55 -39 40 -38 77 -42 71 -8 -5 28 -22 46 -59 62 -42 17 -96 17 -91 1z"/> <path d="M6940 5715 c-7 -9 -15 -50 -18 -93 -2 -42 -9 -85 -14 -95 -6 -12 -5 -35 3 -67 11 -42 10 -52 -4 -74 -22 -32 -32 -87 -30 -151 3 -58 -14 -118 -30 -112 -7 2 -12 22 -12 45 0 22 -3 43 -7 47 -4 4 -5 20 -1 35 6 33 -25 58 -45 38 -15 -15 -15 -71 -1 -85 8 -8 8 -20 2 -40 -11 -30 8 -116 27 -128 15 -9 12 -62 -4 -68 -12 -5 -14 -25 -11 -97 4 -97 13 -120 51 -120 22 0 24 4 24 49 0 27 5 62 11 78 6 15 10 71 10 123 0 94 9 139 22 106 4 -9 10 -16 14 -16 12 0 34 150 27 178 -5 16 0 29 15 43 11 11 22 25 22 32 5 47 -4 219 -13 250 -8 27 -8 44 0 63 23 49 -7 96 -38 59z"/> <path d="M2268 5690 c12 -11 24 -20 28 -20 4 0 -1 9 -11 20 -10 11 -23 20 -28 20 -6 0 -1 -9 11 -20z"/> <path d="M3456 5629 c-27 -4 -61 -12 -75 -18 -14 -5 -43 -12 -63 -16 -39 -6 -70 -37 -61 -61 3 -8 -1 -14 -8 -14 -8 0 -26 -6 -40 -14 -14 -7 -39 -16 -55 -20 -16 -4 -40 -18 -54 -30 -37 -33 -99 -66 -105 -56 -10 16 45 64 107 95 62 30 81 51 56 60 -24 9 -167 -62 -177 -87 -6 -13 -27 -41 -47 -63 -29 -31 -37 -47 -36 -72 2 -29 -1 -33 -30 -41 -24 -6 -34 -15 -40 -39 -8 -30 -11 -32 -83 -44 -80 -14 -100 -29 -37 -29 20 0 53 -3 72 -6 27 -4 41 -1 59 15 13 12 33 21 45 21 13 0 42 23 74 59 54 59 68 67 195 116 47 19 76 25 97 20 28 -6 44 9 19 17 -15 5 -14 75 2 94 7 9 25 14 43 12 24 -2 36 -12 54 -45 18 -33 21 -47 13 -62 -8 -14 -8 -20 2 -24 22 -7 302 5 313 15 7 5 15 23 18 41 3 18 15 49 26 70 11 20 20 42 20 48 0 18 -43 48 -75 53 -57 10 -180 12 -229 5z m200 -64 c9 -13 17 -39 18 -57 1 -26 -4 -35 -27 -46 -43 -21 -57 -10 -57 47 0 74 35 103 66 56z m-147 -19 c17 -20 2 -75 -26 -93 -22 -14 -25 -14 -43 2 -28 25 -25 60 6 84 31 24 47 26 63 7z"/> <path d="M3800 5561 c0 -27 56 -71 91 -71 49 0 38 33 -22 64 -61 31 -69 32 -69 7z"/> <path d="M4160 5565 c-9 -11 -11 -34 -7 -77 3 -33 2 -71 -3 -84 -13 -33 2 -79 26 -79 12 0 20 8 22 22 2 12 10 27 18 33 27 23 8 150 -27 186 -14 14 -17 13 -29 -1z"/> <path d="M5033 5540 c-34 -14 -52 -51 -59 -117 -9 -87 1 -130 35 -148 23 -11 35 -12 59 -3 26 10 34 9 51 -6 31 -28 88 -31 156 -7 32 12 69 21 81 21 l22 0 -19 40 c-10 21 -19 43 -19 47 0 18 53 63 74 63 38 0 49 -23 41 -85 -6 -52 -5 -55 18 -60 14 -4 35 -1 47 5 20 11 20 13 6 35 -24 36 -21 92 5 100 12 4 26 2 32 -4 12 -12 13 -72 2 -112 -6 -24 -3 -28 27 -37 18 -6 66 -14 105 -18 89 -8 119 6 129 63 4 21 11 47 17 57 9 19 10 19 29 -4 l19 -23 22 22 c25 23 44 26 67 11 12 -7 11 -13 -10 -35 -21 -22 -22 -29 -12 -45 14 -23 2 -26 -28 -8 -14 9 -23 9 -30 2 -17 -17 49 -54 97 -54 32 0 46 -7 73 -35 19 -19 38 -35 43 -35 6 0 31 -19 57 -42 25 -24 64 -58 86 -77 21 -18 42 -43 46 -55 4 -13 6 -3 7 29 1 39 -4 55 -19 67 -10 9 -31 35 -46 57 -15 23 -31 41 -36 41 -13 0 -122 72 -127 83 -2 5 -12 17 -22 25 -24 21 -25 52 -1 52 10 0 30 -12 44 -27 25 -29 99 -97 131 -122 15 -12 17 -10 17 23 0 31 -9 46 -50 90 -59 62 -85 76 -247 130 -89 30 -270 55 -398 56 -99 0 -212 -26 -226 -51 -5 -11 -16 -19 -24 -19 -7 0 -27 -12 -44 -27 -16 -16 -46 -41 -65 -56 -33 -27 -36 -27 -64 -13 -16 8 -32 23 -36 31 -11 30 -6 91 9 111 8 10 15 31 15 47 0 24 -3 27 -32 26 -18 0 -43 -4 -55 -9z m657 -145 c0 -8 -4 -15 -10 -15 -5 0 -10 7 -10 15 0 8 5 15 10 15 6 0 10 -7 10 -15z m42 -48 c12 -19 4 -41 -15 -45 -25 -5 -47 16 -47 45 0 22 3 24 27 18 15 -3 31 -12 35 -18z"/> <path d="M3880 5430 c-26 -36 -20 -47 28 -55 20 -3 49 -8 64 -10 42 -7 43 21 3 61 -43 42 -67 43 -95 4z"/> <path d="M2787 5423 c-12 -11 -8 -23 8 -23 8 0 15 7 15 15 0 16 -12 20 -23 8z"/> <path d="M6757 5383 c-10 -9 -9 -53 2 -53 12 0 20 35 12 49 -4 6 -10 8 -14 4z"/> <path d="M1950 5336 c-15 -47 -3 -114 22 -122 15 -4 28 3 52 32 35 43 35 58 -2 97 -35 37 -58 35 -72 -7z"/> <path d="M2160 5340 c0 -11 4 -20 9 -20 11 0 22 26 14 34 -12 12 -23 5 -23 -14z"/> <path d="M6381 5336 c-33 -35 -37 -92 -12 -167 28 -84 42 -109 57 -109 24 0 28 51 10 100 -28 71 -30 98 -11 120 20 22 17 74 -5 78 -9 1 -26 -8 -39 -22z"/> <path d="M3781 5249 c-13 -5 -39 -7 -57 -3 -26 5 -47 -1 -93 -25 -34 -17 -76 -31 -95 -31 -64 0 -89 -27 -46 -50 15 -8 29 -6 62 10 23 11 56 20 74 20 18 0 39 7 48 15 10 11 44 17 108 20 92 6 129 20 114 44 -9 13 -82 13 -115 0z"/> <path d="M7050 5200 c0 -5 9 -10 20 -10 11 0 20 5 20 10 0 6 -9 10 -20 10 -11 0 -20 -4 -20 -10z"/> <path d="M7123 5187 c-34 -15 -29 -52 14 -103 34 -40 39 -43 50 -27 17 23 16 58 -2 73 -8 7 -15 18 -15 24 0 7 -6 19 -12 28 -10 13 -18 14 -35 5z"/> <path d="M5217 5183 c-14 -14 -6 -50 18 -83 14 -19 25 -39 25 -45 0 -6 24 -35 53 -65 40 -41 74 -64 133 -89 43 -19 107 -49 142 -68 58 -32 76 -36 202 -48 76 -7 155 -19 175 -26 52 -19 93 11 48 36 -10 6 -31 20 -46 33 -24 18 -41 22 -105 22 -81 0 -221 37 -275 73 -15 9 -30 17 -33 17 -4 0 -26 8 -48 18 -23 10 -58 26 -79 36 -51 22 -117 75 -117 94 0 22 61 11 166 -31 49 -20 109 -39 134 -43 25 -4 57 -13 72 -20 15 -8 53 -18 85 -24 32 -5 71 -12 87 -16 41 -10 30 16 -15 38 -19 9 -50 30 -68 47 -29 27 -40 31 -90 31 -38 0 -86 10 -141 30 -47 16 -94 30 -105 30 -11 0 -29 7 -39 15 -23 17 -62 20 -71 5 -11 -18 -37 -11 -57 15 -19 25 -38 31 -51 18z"/> <path d="M3588 5117 c-7 -13 -6 -23 1 -30 14 -14 85 13 89 35 5 24 -76 20 -90 -5z"/> <path d="M1947 5124 c-11 -11 -8 -84 3 -84 13 0 25 69 13 81 -5 5 -12 6 -16 3z"/> <path d="M3470 5072 c0 -4 9 -13 21 -20 17 -11 25 -11 45 3 13 8 24 18 24 20 0 3 -20 5 -45 5 -25 0 -45 -3 -45 -8z"/> <path d="M3235 5028 c-3 -9 -17 -19 -31 -22 -28 -7 -32 -26 -6 -26 23 0 56 34 49 52 -3 10 -6 9 -12 -4z"/> <path d="M6996 5009 c-30 -35 -32 -56 -11 -136 9 -32 20 -123 25 -203 11 -163 28 -270 42 -270 23 0 42 78 45 190 2 63 4 125 4 137 1 29 -20 260 -27 291 -7 33 -46 29 -78 -9z"/> <path d="M6037 4983 c-14 -13 -6 -23 18 -23 16 0 25 6 25 15 0 15 -31 21 -43 8z"/> <path d="M6127 4983 c-13 -12 -7 -23 13 -23 11 0 20 7 20 15 0 15 -21 21 -33 8z"/> <path d="M1886 4925 c-10 -26 -7 -63 5 -71 16 -9 27 7 31 46 2 25 -1 35 -13 38 -9 2 -19 -4 -23 -13z"/> <path d="M1530 4866 c0 -9 7 -16 16 -16 9 0 14 5 12 12 -6 18 -28 21 -28 4z"/> <path d="M2180 4771 c-5 -11 -10 -27 -10 -35 0 -8 -9 -20 -20 -26 -15 -8 -20 -21 -20 -53 0 -23 -9 -62 -20 -86 -27 -58 -27 -151 -2 -174 26 -23 27 -22 41 23 6 22 16 40 20 40 5 0 21 16 36 36 26 34 27 36 10 70 -9 19 -19 50 -22 69 -4 27 -1 37 21 56 21 18 26 29 21 49 -13 49 -37 63 -55 31z"/> <path d="M6862 4700 c-12 -33 -14 -34 -27 -16 -7 10 -18 16 -22 13 -12 -7 -7 -255 6 -326 8 -41 7 -60 -3 -80 -8 -15 -16 -74 -20 -136 -3 -61 -8 -123 -12 -139 -6 -25 -4 -28 10 -23 10 4 23 7 30 7 31 0 107 203 110 295 4 88 -5 108 -44 100 -38 -8 -50 13 -19 36 27 20 28 39 13 209 -9 93 -9 94 -22 60z"/> <path d="M7216 4623 c-11 -40 -17 -123 -9 -123 14 0 43 56 43 83 0 50 -23 77 -34 40z"/> <path d="M5120 4491 c0 -17 11 -42 24 -58 14 -16 39 -56 57 -88 l32 -59 -12 -95 c-7 -53 -19 -106 -27 -119 -18 -28 -15 -67 6 -67 8 0 21 12 28 27 7 16 21 32 31 38 10 5 22 21 25 35 4 14 13 25 21 25 19 0 19 39 0 64 -8 11 -15 38 -15 60 0 78 -42 166 -90 191 -15 8 -33 28 -40 45 -16 39 -40 40 -40 1z"/> <path d="M3923 4502 c-7 -4 -25 -47 -41 -94 -16 -48 -33 -93 -39 -100 -26 -32 -24 -55 9 -96 48 -60 60 -55 52 21 -5 53 -2 76 20 143 15 43 31 87 37 97 16 30 -8 48 -38 29z"/> <path d="M7132 4373 c-6 -21 -22 -69 -36 -108 -28 -76 -33 -130 -14 -141 19 -12 45 31 52 87 4 29 14 65 22 81 17 32 15 109 -2 115 -6 2 -16 -13 -22 -34z"/> <path d="M2185 4360 c-4 -6 -3 -16 3 -22 6 -6 12 -6 17 2 4 6 3 16 -3 22 -6 6 -12 6 -17 -2z"/> <path d="M7190 4323 c0 -5 4 -14 9 -21 7 -11 9 -11 14 1 3 8 3 18 0 21 -9 8 -23 7 -23 -1z"/> <path d="M2197 4294 c-10 -11 -8 -54 2 -54 14 0 25 40 14 51 -5 5 -12 6 -16 3z"/> <path d="M2020 4236 c0 -14 9 -31 21 -40 12 -8 27 -25 33 -37 15 -29 30 -29 34 -1 3 17 -2 25 -17 29 -14 3 -21 15 -23 37 -2 23 -8 32 -25 34 -19 3 -23 -1 -23 -22z"/> <path d="M4104 4210 c-32 -13 -37 -27 -18 -55 16 -24 21 -26 64 -20 31 4 61 1 90 -9 56 -19 80 -20 80 -2 0 31 -37 58 -105 77 -77 21 -81 21 -111 9z"/> <path d="M4920 4125 c-25 -13 -62 -30 -82 -39 -24 -10 -38 -22 -38 -34 0 -23 19 -42 42 -42 10 0 25 -11 34 -25 25 -38 60 -33 101 15 23 26 43 40 59 40 27 0 64 32 64 56 0 8 -5 24 -10 35 -15 28 -109 25 -170 -6z"/> <path d="M7044 4078 c-8 -18 -22 -45 -30 -60 -15 -28 -64 -211 -64 -241 0 -10 -10 -52 -21 -93 -19 -62 -20 -82 -12 -133 7 -45 6 -68 -3 -90 -17 -41 -28 -116 -20 -146 7 -29 44 -35 52 -7 3 9 14 35 25 57 19 40 19 40 -1 80 -22 44 -25 70 -9 81 6 4 9 19 5 36 -4 18 0 41 11 61 10 20 17 61 18 107 2 62 9 92 44 174 28 69 41 114 41 147 0 59 -15 71 -36 27z"/> <path d="M5300 4085 c0 -8 5 -15 10 -15 6 0 10 7 10 15 0 8 -4 15 -10 15 -5 0 -10 -7 -10 -15z"/> <path d="M4105 4060 c-3 -6 4 -10 18 -10 14 0 30 -7 37 -15 16 -19 36 -4 27 19 -7 18 -72 22 -82 6z"/> <path d="M3665 4039 c-10 -15 3 -25 16 -12 7 7 7 13 1 17 -6 3 -14 1 -17 -5z"/> <path d="M5203 3955 c-19 -20 -16 -25 13 -25 18 0 25 5 22 17 -4 22 -20 26 -35 8z"/> <path d="M2207 3923 c-12 -12 -7 -89 6 -108 12 -16 15 -13 20 34 8 66 -3 97 -26 74z"/> <path d="M4570 3900 c-8 -4 -27 -13 -43 -19 -26 -10 -27 -12 -21 -66 6 -45 4 -59 -11 -75 -12 -13 -16 -30 -13 -51 4 -22 0 -32 -11 -36 -36 -13 -41 -24 -25 -54 16 -31 31 -37 40 -15 3 9 30 16 75 20 76 8 81 14 54 67 -17 31 -35 31 -35 -1 0 -10 -5 -22 -10 -25 -20 -12 -22 25 -5 77 24 72 28 79 59 102 27 21 28 21 42 2 17 -24 20 -21 28 34 l7 45 -58 1 c-32 1 -65 -2 -73 -6z"/> <path d="M5280 3850 c0 -38 26 -80 51 -80 10 0 24 -12 31 -27 8 -17 25 -32 45 -37 22 -7 34 -18 38 -35 14 -57 59 -77 94 -42 18 18 19 17 30 -50 6 -37 11 -81 11 -98 0 -23 7 -33 32 -45 17 -9 33 -16 36 -16 2 0 1 21 -3 48 l-7 47 51 -50 c28 -27 51 -53 51 -59 0 -5 14 -38 31 -74 27 -58 32 -63 45 -50 13 13 14 22 4 58 -15 55 -117 228 -144 242 -11 6 -36 28 -55 50 -19 21 -41 36 -48 34 -8 -3 -15 5 -19 20 -8 31 -47 48 -75 34 -22 -12 -26 -6 -31 45 -3 28 -6 30 -53 35 -40 4 -51 9 -53 25 -5 25 -31 55 -49 55 -8 0 -13 -12 -13 -30z"/> <path d="M4846 3832 c-4 -6 -2 -20 4 -31 5 -11 10 -29 10 -40 0 -12 5 -21 10 -21 6 0 10 15 10 33 0 38 -23 77 -34 59z"/> <path d="M5494 3829 c-10 -17 13 -36 27 -22 12 12 4 33 -11 33 -5 0 -12 -5 -16 -11z"/> <path d="M3480 3774 c-19 -14 -46 -36 -61 -50 -14 -13 -30 -24 -37 -24 -6 0 -27 -13 -45 -30 -19 -16 -39 -30 -45 -30 -20 0 -92 -80 -92 -103 0 -12 -9 -30 -20 -40 -31 -26 -28 -110 5 -143 24 -24 24 -27 10 -54 -16 -30 -11 -60 9 -60 14 0 38 68 30 81 -3 5 -7 48 -10 95 -4 76 -2 90 15 108 10 12 21 30 23 41 2 14 13 21 33 23 17 2 35 7 40 12 6 4 44 15 85 24 110 25 204 86 198 128 -2 19 -8 22 -34 20 -19 -2 -36 3 -44 12 -16 20 -17 20 -60 -10z"/> <path d="M4141 3754 c-26 -33 -26 -36 -1 -59 11 -10 20 -26 20 -36 0 -10 4 -20 9 -23 5 -4 11 22 13 56 6 95 -4 109 -41 62z"/> <path d="M4330 3724 c-7 -19 -9 -38 -6 -42 14 -13 41 16 44 47 5 44 -23 41 -38 -5z"/> <path d="M4740 3711 c0 -18 23 -35 33 -24 7 6 -15 43 -25 43 -5 0 -8 -9 -8 -19z"/> <path d="M2233 3694 c-3 -8 -3 -40 1 -69 5 -48 4 -56 -15 -65 -16 -9 -27 -7 -54 9 -42 24 -75 18 -75 -15 0 -33 46 -54 117 -54 76 0 91 10 75 45 -8 17 -10 45 -6 75 6 47 -6 90 -27 90 -5 0 -12 -7 -16 -16z"/> <path d="M2621 3701 c-12 -8 -13 -14 -3 -35 14 -31 28 -33 42 -5 9 15 8 24 -1 35 -13 16 -19 17 -38 5z"/> <path d="M6740 3606 c0 -26 4 -36 16 -36 11 0 14 8 12 32 -4 46 -28 49 -28 4z"/> <path d="M5510 3571 c0 -11 5 -23 10 -26 6 -3 10 3 10 14 0 11 -4 23 -10 26 -5 3 -10 -3 -10 -14z"/> <path d="M4680 3535 c-7 -9 -11 -16 -9 -18 47 -27 49 -27 55 -12 15 37 -21 60 -46 30z"/> <path d="M8550 3541 c0 -11 26 -22 34 -14 12 12 5 23 -14 23 -11 0 -20 -4 -20 -9z"/> <path d="M4830 3510 c20 -13 40 -13 40 0 0 6 -12 10 -27 10 -22 0 -25 -2 -13 -10z"/> <path d="M4291 3484 c-12 -15 -21 -32 -21 -39 0 -27 -140 -24 -173 4 -13 10 -16 8 -22 -9 -6 -18 -12 -20 -37 -15 -24 6 -77 -6 -97 -21 -2 -2 7 -18 21 -36 14 -18 28 -45 32 -60 7 -29 31 -38 39 -15 2 6 -1 22 -6 34 -16 37 6 53 72 53 66 -1 113 -29 91 -55 -13 -16 -5 -71 12 -81 15 -10 39 26 33 48 -8 22 44 128 62 128 15 0 33 39 33 71 0 26 -15 24 -39 -7z"/> <path d="M4694 3445 c-8 -21 4 -35 32 -35 26 0 32 18 12 38 -16 16 -37 15 -44 -3z"/> <path d="M4367 3443 c-17 -16 -6 -41 21 -46 35 -7 37 -4 17 27 -18 27 -27 31 -38 19z"/> <path d="M3304 3429 c-3 -6 -2 -15 4 -21 13 -13 32 -2 32 18 0 16 -26 19 -36 3z"/> <path d="M4813 3417 c-56 -10 -65 -25 -42 -68 5 -11 13 -39 17 -62 9 -53 35 -61 51 -17 6 17 24 49 41 71 35 44 37 83 5 85 -11 1 -44 -3 -72 -9z"/> <path d="M5298 3413 c-8 -10 -18 -26 -21 -35 -8 -21 -47 -24 -47 -4 0 23 -22 31 -35 12 -12 -15 -18 -15 -90 9 -73 25 -79 25 -110 11 -18 -9 -38 -16 -43 -16 -22 0 -23 -22 -4 -58 10 -20 22 -49 26 -64 3 -16 11 -28 16 -28 12 0 40 54 40 78 0 49 58 51 87 4 9 -15 27 -37 40 -50 24 -24 32 -76 13 -87 -6 -4 -23 -32 -39 -64 -38 -75 -104 -136 -131 -121 -10 5 -22 15 -25 20 -3 6 -34 10 -68 10 -39 0 -71 6 -84 15 -19 13 -23 13 -49 -8 -25 -19 -41 -22 -119 -22 -50 0 -109 6 -132 14 -36 12 -45 12 -59 0 -12 -10 -45 -14 -111 -14 -86 0 -96 2 -113 23 -10 12 -20 28 -23 35 -3 9 -10 7 -24 -5 -11 -10 -35 -18 -54 -18 -19 0 -51 -9 -72 -20 -50 -27 -61 -25 -92 13 -62 76 -66 79 -85 62 -30 -27 -67 15 -90 100 -21 75 -19 94 13 137 26 34 18 44 -24 29 -22 -8 -36 -8 -43 -1 -5 5 -27 10 -47 10 -21 0 -41 5 -45 11 -6 11 -49 8 -107 -6 -19 -5 -33 -3 -45 8 -10 9 -33 18 -52 19 -34 3 -35 2 -33 -30 2 -48 21 -88 48 -100 21 -10 27 -8 43 15 15 21 24 25 45 19 15 -3 27 -12 27 -19 0 -7 16 -28 35 -47 19 -18 39 -48 45 -66 13 -40 78 -94 167 -141 37 -19 84 -49 104 -68 20 -18 52 -36 70 -40 70 -15 181 -56 208 -76 34 -25 79 -22 95 6 6 11 15 23 20 27 15 10 118 2 159 -12 29 -11 46 -12 79 -3 27 7 49 8 60 2 9 -5 45 -9 80 -9 41 0 71 -5 84 -15 29 -22 53 -18 64 10 10 26 38 33 58 13 8 -8 26 -5 70 15 33 15 64 27 70 27 5 0 37 20 70 45 33 25 65 45 71 45 23 0 159 70 165 85 3 8 14 15 24 15 20 0 72 42 72 59 0 5 10 17 21 25 17 11 26 12 40 3 15 -9 23 -7 43 12 31 30 37 55 19 81 -12 17 -17 19 -30 8 -12 -10 -18 -8 -32 11 -17 23 -19 23 -44 7 -24 -16 -27 -16 -51 -1 -16 11 -35 15 -51 11 -20 -5 -25 -3 -25 12 0 10 5 23 11 29 6 6 9 21 7 34 -4 30 -38 37 -60 12z m117 -213 c0 -16 -6 -26 -18 -28 -19 -4 -32 20 -23 44 9 25 41 13 41 -16z"/> <path d="M3861 3411 c-15 -10 -11 -43 6 -48 6 -2 16 5 22 15 13 24 -7 46 -28 33z"/> <path d="M4490 3385 c-7 -9 -21 -13 -31 -10 -24 8 -24 -3 1 -35 11 -14 20 -33 20 -44 0 -10 5 -36 12 -57 l11 -39 17 38 c10 21 15 52 13 69 -3 17 0 34 6 37 13 9 15 46 2 46 -5 0 -16 2 -24 5 -7 3 -20 -1 -27 -10z"/> <path d="M2334 3283 c7 -53 29 -93 51 -93 22 0 18 32 -11 89 -34 64 -49 66 -40 4z"/> <path d="M5624 3296 c-8 -21 -1 -49 14 -54 8 -2 12 8 12 32 0 36 -16 49 -26 22z"/> <path d="M5690 3286 c0 -14 4 -37 10 -51 7 -18 6 -40 -1 -70 -8 -30 -8 -49 0 -63 6 -11 13 -60 16 -110 5 -84 4 -91 -15 -97 -15 -5 -18 -12 -14 -35 5 -20 0 -34 -15 -49 -21 -21 -26 -46 -15 -75 4 -11 19 -16 45 -16 35 0 39 2 39 26 0 15 -8 33 -17 40 -17 12 -17 14 5 43 12 17 22 44 22 61 0 17 5 40 11 52 6 11 12 43 14 71 2 29 7 68 11 89 5 30 3 38 -14 47 -13 7 -22 26 -27 58 -12 79 -55 141 -55 79z"/> <path d="M3295 3216 c-3 -9 -7 -22 -9 -30 -3 -8 -2 -17 1 -20 10 -10 33 15 33 35 0 23 -19 35 -25 15z"/> <path d="M6614 3216 c-10 -27 3 -44 42 -55 65 -18 108 6 80 44 -18 25 -113 34 -122 11z"/> <path d="M2407 3125 c-23 -48 -22 -55 18 -134 19 -37 35 -80 35 -93 0 -14 11 -42 25 -63 16 -23 23 -44 20 -56 -4 -11 2 -36 13 -57 10 -20 22 -54 26 -74 5 -27 15 -42 34 -52 15 -8 36 -23 46 -35 20 -22 70 -29 81 -11 3 6 -2 13 -12 16 -37 11 -48 22 -59 54 -6 18 -18 37 -27 42 -25 13 -40 81 -28 125 8 30 8 39 -3 45 -8 5 -20 24 -26 44 -8 24 -21 39 -39 45 -24 9 -28 17 -39 87 -7 42 -12 89 -12 103 0 23 -16 49 -30 49 -4 0 -14 -16 -23 -35z"/> <path d="M7406 3043 c-9 -9 -7 -33 3 -33 12 0 22 28 12 34 -5 3 -11 3 -15 -1z"/> <path d="M5550 2874 c0 -14 3 -14 15 -4 8 7 15 14 15 16 0 2 -7 4 -15 4 -8 0 -15 -7 -15 -16z"/> <path d="M3386 2867 c-10 -7 -16 -22 -14 -33 5 -26 71 -28 76 -1 4 20 -14 47 -32 47 -7 0 -20 -6 -30 -13z"/> <path d="M6360 2855 c0 -15 6 -25 14 -25 22 0 30 19 16 35 -18 22 -30 18 -30 -10z"/> <path d="M5084 2775 c-31 -48 10 -84 52 -45 13 13 24 34 24 47 0 34 -53 33 -76 -2z"/> <path d="M3262 2777 c-7 -8 -15 -27 -18 -44 -7 -33 15 -59 42 -49 13 5 14 15 9 49 -8 50 -18 63 -33 44z"/> <path d="M3950 2775 c0 -8 7 -15 15 -15 9 0 12 6 9 15 -4 8 -10 15 -15 15 -5 0 -9 -7 -9 -15z"/> <path d="M2647 2743 c-13 -23 -17 -72 -6 -79 17 -10 51 34 47 60 -3 21 -32 34 -41 19z"/> <path d="M3356 2734 c-7 -18 0 -34 15 -34 12 0 12 37 0 44 -5 3 -12 -1 -15 -10z"/> <path d="M4020 2711 c0 -25 5 -29 33 -34 41 -6 54 5 39 38 -9 19 -19 25 -42 25 -26 0 -30 -3 -30 -29z"/> <path d="M4148 2669 c-36 -20 -15 -69 29 -69 13 0 32 -6 43 -12 14 -9 23 -9 30 -2 16 16 0 45 -24 43 -24 -2 -76 10 -76 18 0 3 8 12 18 19 20 16 5 18 -20 3z"/> <path d="M5750 2651 c-14 -26 -13 -27 12 -51 21 -19 21 -23 8 -53 -7 -17 -15 -59 -18 -92 -2 -33 -9 -66 -14 -72 -15 -19 -1 -16 22 4 14 12 20 30 20 56 0 24 8 51 22 69 19 27 20 34 9 64 -7 19 -10 43 -6 53 4 14 0 23 -14 30 -26 15 -29 14 -41 -8z"/> <path d="M4818 2636 c-46 -25 -48 -40 -9 -56 56 -23 120 10 89 47 -24 29 -42 31 -80 9z"/> <path d="M4576 2633 c-8 -19 14 -37 28 -23 10 10 1 40 -13 40 -5 0 -12 -8 -15 -17z"/> <path d="M4280 2615 c0 -9 7 -18 16 -22 9 -3 13 -12 9 -21 -8 -21 13 -32 46 -25 21 4 31 0 44 -20 10 -16 14 -34 10 -47 -4 -11 -2 -20 4 -20 13 0 24 40 19 71 -2 19 -11 25 -42 30 -27 4 -47 16 -65 38 -29 34 -41 39 -41 16z"/> <path d="M5383 2623 c-7 -2 -13 -9 -13 -13 0 -17 49 -62 59 -55 16 9 13 41 -5 59 -16 17 -21 18 -41 9z"/> <path d="M4690 2603 c-24 -9 -60 -45 -54 -54 3 -5 16 -9 30 -9 31 0 64 -33 57 -58 -3 -15 2 -21 23 -26 39 -10 53 8 33 43 -9 16 -15 40 -12 54 7 37 -36 65 -77 50z"/> <path d="M3411 2563 c-5 -11 -6 -25 -1 -33 7 -11 13 -10 35 4 30 20 29 39 -3 44 -12 2 -25 -4 -31 -15z"/> <path d="M6206 2524 c-11 -29 -6 -64 9 -64 10 0 15 10 15 34 0 38 -14 55 -24 30z"/> <path d="M5873 2491 c-7 -20 -8 -33 -1 -37 15 -9 20 1 16 36 l-3 33 -12 -32z"/> <path d="M3267 2504 c-4 -4 -7 -14 -7 -23 0 -11 3 -12 11 -4 6 6 10 16 7 23 -2 6 -7 8 -11 4z"/> <path d="M5210 2475 c0 -16 6 -25 15 -25 16 0 19 9 9 34 -9 25 -24 19 -24 -9z"/> <path d="M5512 2448 c-36 -47 -38 -71 -4 -76 18 -3 23 3 28 27 4 18 11 34 15 37 11 7 12 54 1 54 -4 0 -22 -19 -40 -42z"/> <path d="M3643 2447 c-27 -40 -30 -70 -7 -65 26 5 55 50 48 76 -8 30 -15 28 -41 -11z"/> <path d="M2756 2444 c-24 -24 -16 -65 20 -101 19 -20 21 -17 28 38 9 69 -13 98 -48 63z"/> <path d="M3832 2448 c-14 -14 -16 -38 -2 -38 9 0 30 31 30 44 0 10 -15 7 -28 -6z"/> <path d="M6114 2405 c-4 -9 -19 -22 -35 -31 -22 -11 -30 -24 -35 -55 -5 -30 -13 -43 -30 -50 -20 -7 -24 -16 -24 -51 0 -35 -7 -50 -35 -81 -19 -21 -37 -47 -40 -58 -4 -11 -16 -30 -28 -44 -86 -95 -87 -116 -2 -81 26 11 35 21 35 38 0 13 9 37 20 53 11 17 20 35 20 42 0 17 46 61 67 65 14 2 19 15 21 58 2 41 8 57 23 68 17 12 20 21 14 48 -7 39 10 53 43 35 22 -12 38 0 44 34 2 15 -3 21 -25 23 -18 2 -29 -2 -33 -13z"/> <path d="M4460 2361 c-16 -30 -12 -97 7 -116 9 -9 18 -39 21 -66 2 -27 9 -52 14 -55 5 -3 28 -2 51 2 l42 7 -31 9 c-30 8 -32 10 -38 78 -6 60 -38 160 -51 160 -2 0 -9 -9 -15 -19z"/> <path d="M5121 2350 c-12 -7 -13 -17 -5 -47 11 -47 39 -56 54 -17 9 24 8 31 -12 51 -16 15 -27 20 -37 13z"/> <path d="M5670 2323 c0 -23 5 -33 15 -33 19 0 19 21 0 46 -14 18 -14 17 -15 -13z"/> <path d="M5570 2314 c0 -17 6 -28 20 -31 11 -3 20 -10 20 -16 0 -6 3 -8 6 -5 3 3 1 14 -5 25 -5 10 -12 26 -15 36 -8 26 -26 20 -26 -9z"/> <path d="M3280 2300 c0 -15 7 -20 25 -20 23 0 24 2 15 20 -6 11 -17 20 -25 20 -8 0 -15 -9 -15 -20z"/> <path d="M4680 2280 c0 -15 38 -50 55 -50 22 0 18 27 -7 44 -26 18 -48 21 -48 6z"/> <path d="M5454 2267 c-9 -24 0 -52 16 -52 21 0 24 39 6 55 -13 10 -17 9 -22 -3z"/> <path d="M5844 2266 c-4 -10 -2 -22 4 -28 8 -8 13 -7 18 6 4 10 2 22 -4 28 -8 8 -13 7 -18 -6z"/> <path d="M2845 2248 c-12 -39 -15 -88 -5 -89 33 -5 35 -3 32 34 -2 21 2 45 8 53 10 11 9 14 -9 14 -12 0 -23 -6 -26 -12z"/> <path d="M5722 2223 c2 -9 9 -18 16 -21 18 -6 15 25 -4 32 -11 4 -14 1 -12 -11z"/> <path d="M3221 2189 c-12 -24 -21 -49 -21 -55 0 -15 54 -26 86 -18 30 8 31 22 2 26 -18 2 -24 11 -26 38 -5 55 -19 58 -41 9z"/> <path d="M6260 2200 c0 -13 5 -20 13 -17 6 2 12 10 12 17 0 7 -6 15 -12 18 -8 2 -13 -5 -13 -18z"/> <path d="M4405 2178 c-22 -18 -44 -38 -48 -45 -4 -7 -15 -13 -23 -13 -9 0 -14 -5 -12 -12 3 -7 26 -14 53 -15 58 -4 85 15 85 61 0 54 -12 59 -55 24z"/> <path d="M5850 2190 c0 -11 5 -20 10 -20 6 0 10 9 10 20 0 11 -4 20 -10 20 -5 0 -10 -9 -10 -20z"/> <path d="M5754 2150 c-4 -16 -10 -30 -15 -30 -18 0 -30 -39 -19 -60 15 -28 28 -25 36 8 4 15 12 32 19 37 16 13 22 46 12 63 -14 21 -27 13 -33 -18z"/> <path d="M5610 2146 c0 -9 7 -16 16 -16 17 0 14 22 -4 28 -7 2 -12 -3 -12 -12z"/> <path d="M6247 2153 c-4 -3 -7 -35 -7 -70 0 -103 29 -131 72 -72 22 30 26 44 11 44 -22 1 -33 21 -33 61 0 36 -3 44 -18 44 -10 0 -22 -3 -25 -7z"/> <path d="M3852 2138 c5 -15 28 -18 29 -3 0 6 -7 12 -17 13 -10 3 -15 -1 -12 -10z"/> <path d="M5446 2114 c11 -17 20 -22 27 -15 12 12 -8 41 -29 41 -12 0 -11 -5 2 -26z"/> <path d="M3500 2100 c-24 -24 -28 -49 -5 -30 12 10 19 10 27 2 26 -26 68 -2 68 37 0 19 -69 12 -90 -9z"/> <path d="M3022 2087 c-11 -13 -31 -89 -32 -119 0 -23 12 -23 52 2 32 19 32 20 11 26 -28 8 -28 9 -2 45 17 24 18 33 9 44 -15 18 -24 19 -38 2z"/> <path d="M4537 2063 c-4 -3 -7 -16 -7 -27 0 -12 -9 -27 -21 -34 -26 -17 -22 -57 6 -57 11 0 24 10 30 23 8 19 15 21 45 16 34 -7 34 -6 19 12 -9 10 -19 31 -23 47 -6 26 -33 37 -49 20z"/> <path d="M5273 2029 c3 -23 15 -51 26 -63 l21 -20 0 26 c0 34 -27 98 -41 98 -8 0 -10 -14 -6 -41z"/> <path d="M4055 2040 c-11 -4 -36 -6 -56 -3 -30 4 -39 1 -53 -18 -23 -34 -20 -39 22 -37 20 0 53 -2 72 -6 42 -9 66 6 76 47 5 24 3 27 -17 26 -13 0 -33 -4 -44 -9z"/> <path d="M4327 2043 c-15 -14 -7 -43 12 -43 10 0 24 -7 31 -15 21 -25 30 -17 30 25 0 39 -1 40 -33 40 -19 0 -37 -3 -40 -7z"/> <path d="M5541 2025 c-6 -17 -16 -38 -21 -47 -16 -28 -12 -56 10 -68 15 -8 19 -17 14 -35 -4 -15 -2 -25 4 -25 6 0 12 12 14 28 3 24 7 27 36 26 28 -2 32 1 32 23 0 20 -4 23 -21 18 -26 -9 -39 8 -39 50 0 17 -4 37 -10 45 -7 11 -11 8 -19 -15z"/> <path d="M3440 2025 c-10 -13 -9 -15 9 -15 12 0 21 6 21 15 0 8 -4 15 -9 15 -5 0 -14 -7 -21 -15z"/> <path d="M5167 2024 c-9 -10 4 -34 19 -34 8 0 14 9 14 20 0 19 -19 27 -33 14z"/> <path d="M4164 1996 c-8 -22 3 -33 18 -18 9 9 9 15 0 24 -9 9 -13 7 -18 -6z"/> <path d="M3485 1974 c-23 -36 -16 -37 25 -3 31 25 32 28 14 29 -12 0 -29 -11 -39 -26z"/> <path d="M4710 1970 c0 -11 7 -20 15 -20 17 0 18 2 9 24 -9 23 -24 20 -24 -4z"/> <path d="M3770 1960 c-10 -6 -11 -12 -5 -19 11 -10 115 8 115 21 0 11 -92 10 -110 -2z"/> <path d="M5451 1928 c5 -18 9 -34 9 -35 0 -2 5 -3 10 -3 11 0 13 30 4 54 -3 9 -12 16 -19 16 -11 0 -11 -8 -4 -32z"/> <path d="M4257 1943 c-11 -10 -8 -43 3 -43 6 0 10 11 10 25 0 26 -2 29 -13 18z"/> <path d="M3270 1933 c0 -5 5 -14 11 -20 6 -6 9 -23 7 -39 -2 -25 -8 -30 -38 -34 -23 -3 -36 -11 -38 -23 -4 -21 19 -31 53 -23 51 13 75 137 28 144 -13 2 -23 -1 -23 -5z"/> <path d="M6237 1913 c-11 -10 -7 -222 4 -273 5 -25 12 -63 16 -85 7 -47 25 -70 74 -95 41 -21 126 -104 134 -131 4 -11 10 -19 15 -19 5 0 19 -17 32 -37 21 -35 23 -48 22 -178 0 -140 -5 -168 -50 -285 -7 -19 -20 -61 -28 -94 -8 -32 -24 -68 -34 -80 -11 -11 -34 -48 -51 -80 -17 -33 -51 -81 -76 -107 -25 -27 -45 -52 -45 -57 0 -11 -206 -221 -254 -257 -79 -61 -113 -82 -159 -100 -26 -10 -47 -22 -47 -26 0 -5 54 -9 120 -9 115 0 120 1 120 21 0 12 8 23 20 26 12 3 20 14 20 27 0 12 5 27 12 34 17 17 58 15 58 -3 0 -19 19 -19 45 1 17 13 18 16 5 24 -8 5 -19 10 -24 10 -13 0 4 54 22 68 9 7 28 22 40 33 27 23 42 18 22 -6 -9 -11 -10 -19 -2 -27 18 -18 32 1 32 43 0 36 3 41 34 54 22 10 37 25 44 45 6 17 18 33 27 36 9 4 15 18 15 35 0 26 3 29 31 29 26 0 29 2 20 14 -17 21 22 96 49 96 17 0 20 7 20 43 0 24 7 53 17 67 12 16 18 48 20 95 3 84 9 114 30 137 12 13 16 51 18 177 3 140 1 163 -14 183 -9 13 -28 41 -40 63 -13 22 -30 44 -38 48 -7 5 -27 26 -42 47 -15 21 -57 61 -92 90 -75 60 -91 86 -66 105 12 9 14 14 6 17 -15 5 -20 122 -8 156 11 28 54 30 69 2 16 -30 48 -44 66 -29 10 8 12 15 4 23 -5 5 -10 22 -10 37 0 27 -18 38 -65 39 -11 0 -38 14 -59 30 -38 29 -66 37 -79 23z"/> <path d="M8170 1891 c0 -16 -7 -34 -15 -41 -19 -16 -20 -40 -1 -40 18 0 57 75 50 95 -11 27 -34 17 -34 -14z"/> <path d="M8894 1905 c-7 -18 14 -47 27 -39 5 3 9 16 9 30 0 27 -27 34 -36 9z"/> <path d="M8557 1903 c-23 -23 15 -66 43 -48 5 3 18 1 29 -5 23 -12 51 -3 51 16 0 9 -11 14 -29 14 -16 0 -34 7 -41 15 -13 16 -42 20 -53 8z"/> <path d="M7604 1889 c-12 -20 12 -32 35 -17 11 7 21 16 21 20 0 12 -48 9 -56 -3z"/> <path d="M8320 1886 c0 -18 30 -30 43 -17 5 5 6 14 3 20 -10 16 -46 13 -46 -3z"/> <path d="M6630 1876 c0 -9 7 -16 16 -16 9 0 14 5 12 12 -6 18 -28 21 -28 4z"/> <path d="M4216 1854 c-4 -9 -4 -19 -2 -21 8 -8 26 8 26 23 0 19 -16 18 -24 -2z"/> <path d="M5010 1850 c0 -11 5 -20 10 -20 6 0 10 9 10 20 0 11 -4 20 -10 20 -5 0 -10 -9 -10 -20z"/> <path d="M3950 1806 c0 -22 17 -28 24 -10 9 22 8 24 -9 24 -8 0 -15 -6 -15 -14z"/> <path d="M3470 1774 c-14 -35 -13 -36 10 -24 11 6 20 20 20 30 0 28 -19 25 -30 -6z"/> <path d="M7114 1775 c-4 -18 -1 -32 11 -45 21 -24 44 -25 71 -6 18 14 18 15 -10 45 -36 38 -63 40 -72 6z"/> <path d="M2147 1783 c-14 -23 -16 -102 -4 -143 l14 -45 48 0 c36 0 51 5 59 18 9 15 6 22 -17 41 -23 18 -30 34 -35 77 -6 49 -9 54 -34 57 -14 2 -28 0 -31 -5z"/> <path d="M3710 1760 c-18 -16 -30 -33 -26 -37 3 -4 21 7 38 25 41 41 32 51 -12 12z"/> <path d="M6873 1783 c-7 -2 -13 -13 -13 -23 0 -21 37 -37 51 -23 13 13 -22 53 -38 46z"/> <path d="M3320 1746 c0 -19 -4 -38 -10 -41 -5 -3 -10 -17 -10 -31 0 -18 5 -24 21 -24 11 0 34 -8 50 -17 26 -16 31 -16 39 -3 20 32 11 59 -25 74 -36 16 -46 41 -23 64 9 9 6 12 -15 12 -24 0 -27 -4 -27 -34z"/> <path d="M5460 1756 c0 -14 4 -28 10 -31 6 -4 6 -12 0 -23 -19 -33 -38 -105 -33 -120 8 -19 -23 -42 -54 -42 -26 0 -93 64 -119 114 -14 25 -18 27 -30 14 -8 -8 -16 -28 -17 -44 -2 -23 2 -30 20 -32 32 -5 44 -79 16 -102 -29 -23 -43 -54 -43 -94 0 -64 43 -59 90 9 20 29 40 46 59 50 16 3 35 13 42 21 6 8 18 14 25 14 8 0 19 12 24 28 6 15 15 36 21 48 6 12 9 30 7 42 -2 12 8 30 25 46 18 17 27 33 23 42 -3 9 -6 31 -6 50 0 31 -3 34 -30 34 -25 0 -30 -4 -30 -24z"/> <path d="M690 1749 c0 -11 5 -17 10 -14 6 3 10 13 10 21 0 8 -4 14 -10 14 -5 0 -10 -9 -10 -21z"/> <path d="M930 1755 c-8 -9 -10 -28 -6 -50 6 -31 10 -35 29 -29 41 12 60 57 35 82 -16 16 -43 15 -58 -3z"/> <path d="M4065 1748 c-6 -13 -17 -23 -25 -23 -8 0 -16 -10 -18 -22 -2 -13 1 -23 7 -23 6 0 11 5 11 10 0 6 5 10 10 10 16 0 12 -41 -11 -100 -30 -80 -32 -87 -21 -94 34 -21 80 61 85 154 4 59 -7 110 -22 110 -4 0 -11 -10 -16 -22z"/> <path d="M4364 1755 c-3 -8 -3 -19 1 -25 11 -18 25 -11 25 15 0 27 -17 34 -26 10z"/> <path d="M4575 1760 c-3 -5 -17 -10 -30 -10 -37 0 -58 -54 -36 -89 7 -10 19 -3 55 35 26 26 44 54 42 61 -6 15 -22 17 -31 3z"/> <path d="M207 1740 c-3 -10 1 -24 9 -31 17 -14 64 -4 64 14 0 37 -64 52 -73 17z"/> <path d="M4236 1720 c-37 -41 -53 -81 -41 -100 4 -7 21 5 43 31 53 61 71 109 41 109 -3 0 -23 -18 -43 -40z"/> <path d="M402 1738 c-17 -17 -15 -32 7 -52 14 -13 33 -16 82 -14 66 3 88 21 32 26 -20 2 -37 12 -47 28 -18 26 -54 32 -74 12z"/> <path d="M4672 1715 c-42 -18 -40 -48 3 -55 21 -4 31 -12 33 -28 5 -33 14 -27 42 24 23 45 24 47 5 60 -23 17 -41 17 -83 -1z"/> <path d="M1273 1708 c-33 -16 -30 -40 5 -36 19 2 28 9 30 26 4 24 -2 26 -35 10z"/> <path d="M1469 1691 c-16 -16 -29 -40 -29 -54 0 -29 31 -60 53 -51 19 7 37 55 37 100 0 43 -21 45 -61 5z"/> <path d="M8544 1706 c-7 -17 26 -67 41 -62 15 4 18 45 5 62 -16 18 -39 18 -46 0z"/> <path d="M1168 1685 c-37 -32 -35 -37 10 -33 32 3 37 6 37 27 0 33 -15 35 -47 6z"/> <path d="M3657 1678 c-7 -27 2 -45 14 -27 11 18 11 49 0 49 -5 0 -11 -10 -14 -22z"/> <path d="M8362 1689 c-34 -13 -25 -44 13 -44 25 0 31 4 33 28 4 29 -6 33 -46 16z"/> <path d="M5055 1680 c-7 -12 2 -30 16 -30 5 0 9 9 9 20 0 21 -15 27 -25 10z"/> <path d="M1762 1648 c-27 -27 0 -98 39 -98 31 0 33 25 5 69 -30 46 -28 45 -44 29z"/> <path d="M3834 1636 c-13 -54 25 -88 56 -51 11 13 10 20 -7 42 -26 36 -41 39 -49 9z"/> <path d="M647 1624 c-8 -8 1 -24 14 -24 5 0 9 7 9 15 0 15 -12 20 -23 9z"/> <path d="M4495 1607 c-8 -31 0 -61 15 -52 12 8 13 45 1 64 -8 12 -11 9 -16 -12z"/> <path d="M7262 1614 c2 -12 13 -20 31 -22 30 -4 37 12 10 22 -10 3 -24 9 -31 12 -10 4 -13 0 -10 -12z"/> <path d="M4290 1600 c0 -5 7 -10 15 -10 8 0 15 5 15 10 0 6 -7 10 -15 10 -8 0 -15 -4 -15 -10z"/> <path d="M3572 1593 c-32 -6 -37 -25 -16 -65 10 -18 20 -46 24 -63 3 -16 10 -29 15 -28 12 3 19 164 8 162 -4 -1 -18 -4 -31 -6z"/> <path d="M4364 1545 c-18 -44 -11 -82 10 -52 7 9 18 17 24 17 22 0 23 21 3 46 l-21 27 -16 -38z"/> <path d="M4620 1540 c0 -22 2 -40 5 -40 11 0 25 43 20 60 -11 34 -25 22 -25 -20z"/> <path d="M6816 1559 c-35 -28 -33 -46 9 -66 28 -13 37 -14 50 -3 22 18 19 67 -4 80 -25 13 -24 13 -55 -11z"/> <path d="M3717 1564 c-15 -15 -6 -42 18 -58 30 -20 45 -20 45 -1 0 8 -7 15 -15 15 -8 0 -15 4 -15 8 0 15 -26 43 -33 36z"/> <path d="M4211 1523 c-35 -39 -39 -49 -29 -62 48 -60 51 -111 8 -143 -18 -13 -30 -31 -30 -45 0 -39 33 -28 57 20 29 58 33 83 17 104 -21 28 -16 79 11 123 14 22 25 42 25 45 0 16 -23 0 -59 -42z"/> <path d="M7470 1550 c0 -24 37 -63 50 -55 14 9 12 49 -2 63 -19 19 -48 15 -48 -8z"/> <path d="M4790 1515 c0 -25 14 -34 24 -16 8 12 -3 41 -15 41 -5 0 -9 -11 -9 -25z"/> <path d="M4530 1477 c0 -13 9 -32 19 -41 11 -10 22 -38 26 -66 8 -56 27 -79 50 -60 26 21 27 49 5 85 -11 19 -29 37 -40 40 -11 3 -20 17 -22 33 -4 36 -38 44 -38 9z"/> <path d="M3860 1461 c-7 -13 -7 -22 0 -26 13 -8 30 3 30 20 0 23 -18 27 -30 6z"/> <path d="M7673 1464 c-21 -9 -15 -52 8 -64 32 -18 51 -5 47 32 -3 33 -24 45 -55 32z"/> <path d="M8792 1433 c2 -23 8 -29 35 -31 25 -3 33 1 38 19 8 26 -8 39 -48 39 -25 0 -28 -3 -25 -27z"/> <path d="M5144 1423 c-4 -15 -14 -36 -22 -46 -13 -15 -14 -21 -4 -35 7 -9 17 -27 23 -39 11 -21 45 -37 61 -27 12 8 10 58 -4 72 -6 6 -14 30 -17 53 -7 50 -27 62 -37 22z"/> <path d="M4344 1426 c-4 -10 -2 -22 4 -28 8 -8 13 -7 18 6 4 10 2 22 -4 28 -8 8 -13 7 -18 -6z"/> <path d="M5595 1420 c-10 -11 -24 -20 -32 -20 -19 0 -17 -66 3 -74 23 -9 24 -8 24 14 0 11 14 29 30 42 33 24 38 43 14 52 -21 8 -18 9 -39 -14z"/> <path d="M7445 1420 c-7 -12 2 -30 16 -30 12 0 12 27 0 35 -5 3 -12 1 -16 -5z"/> <path d="M4080 1400 c0 -11 5 -20 10 -20 6 0 10 9 10 20 0 11 -4 20 -10 20 -5 0 -10 -9 -10 -20z"/> <path d="M3960 1395 c0 -8 7 -15 15 -15 9 0 12 6 9 15 -4 8 -10 15 -15 15 -5 0 -9 -7 -9 -15z"/> <path d="M6663 1403 c-13 -2 -23 -8 -23 -12 0 -15 62 -53 95 -58 19 -3 40 -12 46 -19 14 -17 39 -18 39 -3 0 22 -44 72 -76 85 -34 14 -41 15 -81 7z"/> <path d="M3602 1388 c-21 -21 -13 -43 32 -81 25 -20 47 -37 49 -37 10 0 24 56 18 73 -6 16 -62 57 -79 57 -5 0 -13 -5 -20 -12z"/> <path d="M180 1361 c0 -12 6 -21 16 -21 9 0 14 7 12 17 -5 25 -28 28 -28 4z"/> <path d="M7942 1368 c-7 -7 -12 -16 -12 -20 0 -12 28 -10 36 3 10 17 -10 31 -24 17z"/> <path d="M4855 1332 c-3 -7 -5 -21 -5 -30 0 -9 -14 -29 -31 -43 -32 -26 -32 -26 -15 -59 20 -42 21 -78 0 -101 -18 -20 -12 -49 10 -49 8 0 26 4 40 10 22 8 26 16 26 50 0 23 -6 48 -14 56 -8 8 -12 23 -8 36 6 27 47 93 62 103 5 3 10 12 10 19 0 19 -68 26 -75 8z"/> <path d="M4670 1316 c0 -14 5 -26 10 -26 6 0 10 9 10 19 0 11 -4 23 -10 26 -6 4 -10 -5 -10 -19z"/> <path d="M4314 1316 c-8 -20 -1 -49 12 -53 15 -5 24 20 17 46 -6 24 -21 28 -29 7z"/> <path d="M8050 1311 c0 -33 19 -71 35 -71 25 0 28 26 9 59 -21 35 -44 41 -44 12z"/> <path d="M2146 1264 c-20 -20 -38 -46 -42 -57 -3 -11 -28 -42 -55 -69 -44 -44 -52 -48 -98 -48 -69 0 -160 -36 -167 -67 -4 -14 -16 -26 -31 -29 -64 -17 -233 -153 -233 -189 0 -20 -60 -35 -164 -42 -73 -5 -89 -9 -93 -24 -6 -22 -45 -32 -75 -18 -26 11 -68 -4 -163 -60 -89 -53 -124 -71 -136 -71 -6 0 -45 -20 -87 -45 -41 -25 -78 -45 -82 -45 -4 0 -17 -9 -30 -20 -13 -11 -32 -20 -42 -20 -26 0 -94 -36 -101 -54 -9 -23 53 -27 85 -5 14 11 33 19 41 19 9 0 38 5 66 12 39 9 51 16 55 34 7 27 44 49 100 57 21 3 46 13 55 20 9 8 27 18 40 22 12 4 39 18 58 31 19 13 51 26 72 30 20 4 60 15 89 26 29 11 60 17 69 14 8 -4 22 -1 29 5 8 6 38 12 67 14 28 1 68 8 87 15 19 7 41 14 48 16 6 2 12 19 12 37 0 30 4 35 29 40 16 4 32 14 35 25 6 19 28 33 78 51 17 7 30 22 38 45 11 35 41 49 55 26 3 -5 19 -10 35 -10 16 0 32 -5 35 -10 11 -18 27 1 21 24 -3 12 -2 35 3 51 6 23 14 31 37 33 47 5 106 4 151 -3 37 -6 43 -11 54 -44 7 -20 24 -50 39 -67 37 -43 66 -134 51 -162 -12 -23 2 -79 25 -98 16 -13 44 -87 44 -118 1 -27 22 -52 83 -96 47 -34 48 -36 42 -79 -4 -39 -3 -43 14 -38 13 3 38 -9 70 -33 28 -21 54 -40 58 -42 5 -1 23 -22 41 -46 19 -23 40 -42 48 -42 7 0 21 -11 30 -25 9 -14 22 -25 28 -25 7 0 23 -12 37 -26 13 -14 43 -39 66 -55 41 -28 47 -30 135 -27 l92 3 -98 49 c-141 71 -239 147 -379 296 -34 36 -86 88 -114 117 -29 28 -53 58 -53 66 0 7 -9 22 -19 31 -11 10 -31 56 -46 104 -14 48 -32 101 -39 117 -60 137 -78 197 -83 279 -5 90 5 125 50 173 60 64 -5 90 -67 27z"/> <path d="M3785 1268 c-10 -18 -27 -39 -38 -47 -19 -14 -19 -15 -2 -28 27 -19 46 -16 75 12 34 33 64 25 56 -14 -7 -30 0 -43 31 -60 35 -18 59 -13 71 14 15 32 15 53 1 94 -11 30 -13 31 -29 16 -14 -13 -22 -14 -44 -4 -14 7 -26 16 -26 21 0 5 -11 6 -24 2 -16 -4 -25 -1 -29 10 -9 24 -21 19 -42 -16z"/> <path d="M4922 1265 c-20 -21 -23 -31 -17 -64 3 -22 17 -49 31 -62 20 -19 27 -21 49 -11 14 7 34 12 44 12 25 0 51 32 51 63 0 16 8 30 20 37 11 6 20 17 20 25 0 20 -49 20 -56 0 -11 -27 -43 -28 -75 -1 -37 32 -38 32 -67 1z"/> <path d="M6995 1280 c-9 -14 40 -34 62 -26 15 6 16 9 3 15 -30 17 -58 22 -65 11z"/> <path d="M4492 1258 c-15 -15 -16 -80 -1 -95 17 -17 39 -4 38 21 0 11 -6 36 -12 54 -10 26 -15 30 -25 20z"/> <path d="M4590 1230 c0 -18 4 -29 10 -25 6 3 10 15 10 25 0 10 -4 22 -10 25 -6 4 -10 -7 -10 -25z"/> <path d="M8556 1237 c-23 -17 -18 -55 11 -74 20 -13 23 -12 39 12 13 21 15 31 6 50 -13 28 -30 31 -56 12z"/> <path d="M713 1224 c-8 -21 13 -42 28 -27 13 13 5 43 -11 43 -6 0 -13 -7 -17 -16z"/> <path d="M1327 1229 c-18 -10 -18 -12 -1 -30 9 -10 23 -19 31 -19 19 0 27 28 13 45 -15 18 -19 18 -43 4z"/> <path d="M6865 1210 c-4 -6 0 -21 8 -33 22 -34 31 -101 32 -242 1 -104 -3 -139 -17 -173 -10 -24 -18 -59 -18 -79 0 -30 3 -34 23 -31 16 2 23 11 25 33 2 17 6 37 9 45 4 8 8 48 9 87 1 40 7 96 13 123 14 66 -3 177 -37 237 -24 44 -36 51 -47 33z"/> <path d="M7819 1200 c-21 -17 -22 -21 -9 -30 8 -5 30 -10 48 -10 24 0 32 4 32 18 0 21 -18 42 -36 42 -6 0 -22 -9 -35 -20z"/> <path d="M1100 1175 c0 -9 5 -15 11 -13 6 2 11 8 11 13 0 5 -5 11 -11 13 -6 2 -11 -4 -11 -13z"/> <path d="M4083 1159 c-24 -7 -33 -17 -38 -39 -8 -36 1 -54 24 -45 46 18 106 23 121 10 8 -7 31 -12 50 -11 28 1 35 6 35 21 0 14 -8 21 -25 23 -13 2 -37 15 -53 28 -30 25 -60 29 -114 13z"/> <path d="M4710 1126 c0 -32 -3 -34 -37 -39 -21 -3 -52 -9 -70 -12 l-31 -7 3 -67 c2 -49 6 -67 18 -69 10 -2 16 10 21 42 7 45 18 57 31 35 4 -6 22 -8 45 -4 23 4 41 2 45 -4 6 -11 57 -15 67 -6 10 10 -4 55 -18 55 -21 0 -48 58 -34 75 15 18 5 35 -21 35 -15 0 -19 -7 -19 -34z"/> <path d="M4456 1123 c-3 -3 -6 -21 -6 -40 0 -23 5 -33 15 -33 10 0 15 10 15 34 0 34 -11 52 -24 39z"/> <path d="M7455 1121 c-7 -12 34 -41 57 -41 22 0 23 14 2 34 -17 18 -50 21 -59 7z"/> <path d="M8472 1058 c6 -18 28 -21 28 -4 0 9 -7 16 -16 16 -9 0 -14 -5 -12 -12z"/> <path d="M4382 1026 c-12 -28 -49 -43 -65 -27 -15 15 -27 14 -27 -2 0 -22 44 -57 71 -57 13 0 39 13 57 28 30 25 32 30 23 55 -13 34 -44 35 -59 3z"/> <path d="M1342 1018 c-18 -18 -15 -35 10 -52 30 -21 98 -21 98 -1 0 8 -9 15 -20 15 -11 0 -30 11 -42 25 -25 28 -29 30 -46 13z"/> <path d="M4500 995 c0 -9 6 -12 15 -9 8 4 12 10 9 15 -8 14 -24 10 -24 -6z"/> <path d="M5215 970 c-4 -7 -3 -16 3 -22 14 -14 45 -2 40 15 -6 16 -34 21 -43 7z"/> <path d="M8510 959 c0 -18 4 -20 27 -14 34 8 37 11 28 24 -3 6 -17 11 -31 11 -18 0 -24 -5 -24 -21z"/> <path d="M1010 956 c0 -25 12 -46 25 -46 7 0 16 7 19 16 12 31 6 44 -19 44 -15 0 -25 -6 -25 -14z"/> <path d="M1185 920 c-4 -7 2 -22 14 -33 16 -17 23 -19 33 -9 9 9 10 17 2 30 -14 21 -40 27 -49 12z"/> <path d="M6650 915 c0 -8 5 -15 10 -15 6 0 10 7 10 15 0 8 -4 15 -10 15 -5 0 -10 -7 -10 -15z"/> <path d="M8917 913 c-13 -13 -7 -50 11 -66 10 -10 31 -17 45 -17 24 0 27 4 27 33 0 25 -6 35 -27 45 -30 14 -46 15 -56 5z"/> <path d="M4857 872 c-38 -24 -33 -56 10 -60 47 -5 75 14 71 46 -4 34 -40 40 -81 14z"/> <path d="M210 792 c0 -42 14 -62 42 -62 41 0 35 69 -7 88 -35 16 -35 17 -35 -26z"/> <path d="M7250 750 c0 -5 7 -10 15 -10 8 0 15 5 15 10 0 6 -7 10 -15 10 -8 0 -15 -4 -15 -10z"/> <path d="M6086 694 c-4 -10 -2 -22 3 -27 7 -7 13 -5 17 7 4 10 2 22 -3 27 -7 7 -13 5 -17 -7z"/> <path d="M3266 633 c-12 -12 -6 -33 9 -33 8 0 15 6 15 14 0 17 -14 28 -24 19z"/> <path d="M122 608 c7 -19 38 -22 38 -4 0 10 -9 16 -21 16 -12 0 -19 -5 -17 -12z"/> <path d="M6837 604 c-4 -4 -7 -17 -7 -30 0 -12 -11 -36 -25 -52 -25 -30 -35 -92 -14 -92 5 0 19 21 31 46 11 26 32 57 47 70 21 19 24 26 15 41 -12 19 -36 28 -47 17z"/> <path d="M368 566 c-18 -14 -25 -56 -9 -56 10 0 41 45 41 60 0 13 -11 12 -32 -4z"/> <path d="M6672 568 c-15 -15 -16 -54 -1 -64 18 -11 28 9 21 44 -6 26 -10 30 -20 20z"/> <path d="M7944 516 c-8 -22 3 -49 19 -43 6 2 12 14 12 27 0 27 -22 39 -31 16z"/> <path d="M7066 444 c-19 -19 -12 -34 15 -34 12 0 19 7 19 19 0 27 -15 34 -34 15z"/> <path d="M6747 394 c-4 -4 -7 -15 -7 -25 0 -29 -19 -32 -40 -7 -14 17 -22 20 -30 12 -8 -8 -5 -23 12 -58 l23 -48 -28 -24 c-16 -13 -39 -24 -53 -24 -35 0 -43 -29 -14 -52 23 -18 23 -18 46 3 13 12 30 37 39 55 9 19 19 34 24 34 16 0 62 84 59 108 -3 26 -18 38 -31 26z"/> <path d="M439 362 c-13 -10 -32 -21 -41 -25 -10 -3 -18 -11 -18 -17 0 -5 -11 -10 -24 -10 -37 0 -57 -11 -66 -36 -8 -20 -14 -23 -40 -18 -29 6 -60 -8 -60 -27 0 -17 48 -21 72 -6 12 9 41 19 63 23 26 5 54 21 86 50 47 45 66 52 100 34 23 -13 24 -7 3 25 -19 30 -43 32 -75 7z"/> <path d="M8150 360 c0 -5 6 -10 14 -10 8 0 18 5 21 10 3 6 -3 10 -14 10 -12 0 -21 -4 -21 -10z"/> <path d="M6385 271 c-6 -11 9 -23 19 -14 9 9 7 23 -3 23 -6 0 -12 -4 -16 -9z"/> <path d="M102 222 l-42 -18 33 -12 c18 -7 40 -12 48 -12 17 0 42 37 34 50 -8 14 -23 12 -73 -8z"/> <path d="M6977 229 c-11 -6 -32 -8 -48 -5 -16 3 -29 1 -29 -4 0 -16 76 -12 90 5 15 18 12 18 -13 4z"/> <path d="M23 202 c-17 -2 -23 -10 -23 -30 l0 -27 27 27 c30 30 29 36 -4 30z"/> <path d="M6333 188 c2 -7 10 -13 17 -13 7 0 15 6 18 13 2 7 -5 12 -18 12 -13 0 -20 -5 -17 -12z"/> </g> </svg> 
